
/* XPM */
static char *_5528161790f4a0186bc3bf8a62797fbI0aHJrDGVQCOxXdh[] = {
/* columns rows colors chars-per-pixel */
"64 64 249 2 ",
"   c #000C00",
".  c #011102",
"X  c #011D01",
"o  c #091A06",
"O  c #131C09",
"+  c #161814",
"@  c #042403",
"#  c #022B01",
"$  c #0C230C",
"%  c #0D2A0B",
"&  c #062708",
"*  c #12270D",
"=  c #023402",
"-  c #033C02",
";  c #0D330C",
":  c #0B3C0A",
">  c #083906",
",  c #123A0C",
"<  c #0E2914",
"1  c #142C13",
"2  c #1B2D1C",
"3  c #152715",
"4  c #0E3512",
"5  c #133312",
"6  c #153C14",
"7  c #193719",
"8  c #232F19",
"9  c #1C2D20",
"0  c #1D3923",
"q  c #263A23",
"w  c #31382B",
"e  c #2E3A32",
"r  c #373C33",
"t  c #252D25",
"y  c #034401",
"u  c #034B01",
"i  c #0A430B",
"p  c #0B4808",
"a  c #12480D",
"s  c #015201",
"d  c #025B01",
"f  c #0B530C",
"g  c #0A5708",
"h  c #12590D",
"j  c #0E4714",
"k  c #144413",
"l  c #144B12",
"z  c #1D421B",
"x  c #1C4B1B",
"c  c #184618",
"v  c #0D5814",
"b  c #145C14",
"n  c #1B531C",
"m  c #1B5C1C",
"M  c #175616",
"N  c #23481B",
"B  c #22571C",
"V  c #026401",
"C  c #026D02",
"Z  c #096D04",
"A  c #04640B",
"S  c #0B640B",
"D  c #046C0A",
"F  c #0B6C0B",
"G  c #0B6206",
"H  c #11680D",
"J  c #027303",
"K  c #0A7406",
"L  c #027A03",
"P  c #0A7B05",
"I  c #04740B",
"U  c #0B740B",
"Y  c #047A0B",
"T  c #0A7A0B",
"R  c #11740C",
"E  c #127A0C",
"W  c #0D6312",
"Q  c #0C6C12",
"!  c #066E10",
"~  c #136514",
"^  c #146B14",
"/  c #1A6C15",
"(  c #1B631B",
")  c #146B1A",
"_  c #1C6C1B",
"`  c #196317",
"'  c #0D7312",
"]  c #047B12",
"[  c #0C7A12",
"{  c #087417",
"}  c #137314",
"|  c #147C14",
" . c #13731A",
".. c #1B731B",
"X. c #1A7A1C",
"o. c #177716",
"O. c #22681D",
"+. c #24721C",
"@. c #1C4923",
"#. c #1C5722",
"$. c #274927",
"%. c #32482D",
"&. c #245324",
"*. c #285927",
"=. c #32552B",
"-. c #2E4932",
";. c #364735",
":. c #385838",
">. c #2D5B32",
",. c #1C6C23",
"<. c #1D6421",
"1. c #197623",
"2. c #236423",
"3. c #236C23",
"4. c #2C642B",
"5. c #2A6C2B",
"6. c #266A29",
"7. c #30692B",
"8. c #247224",
"9. c #267528",
"0. c #366737",
"q. c #307232",
"w. c #425A3D",
"e. c #45633F",
"r. c #3D5542",
"t. c #3E4E41",
"y. c #3A6142",
"u. c #424C44",
"i. c #485848",
"p. c #4D5951",
"a. c #545955",
"s. c #575653",
"d. c #48684A",
"f. c #5A6859",
"g. c #516F52",
"h. c #62665A",
"j. c #62715E",
"k. c #5D6F64",
"l. c #616965",
"z. c #66776A",
"x. c #787979",
"c. c #757470",
"v. c #038203",
"b. c #058209",
"n. c #0B830C",
"m. c #158415",
"M. c #038614",
"N. c #128021",
"B. c #678768",
"V. c #788877",
"C. c #748E72",
"Z. c #5F8262",
"A. c #81867D",
"S. c #8B876A",
"D. c #817F82",
"F. c #889689",
"G. c #959C95",
"H. c #898C89",
"J. c #9BA698",
"K. c #94A694",
"L. c #9CA6A2",
"P. c #A4A8A3",
"I. c #A8B5A7",
"U. c #BABAB7",
"Y. c #AFB1B2",
"T. c #A5A09F",
"R. c #C2BEBD",
"E. c #BAC4BA",
"W. c #A6C3A5",
"Q. c #C1C8BD",
"!. c #C2D3BF",
"~. c #C1BBC2",
"^. c #D0BFCF",
"/. c #BDCCC4",
"(. c #CDCCCD",
"). c #C8C8C7",
"_. c #D2CCCD",
"`. c #D5C5CB",
"'. c #CCD2CC",
"]. c #C6D5C5",
"[. c #D3D4CE",
"{. c #D3DBCB",
"}. c #CDCDD2",
"|. c #CFC7D2",
" X c #D3CCD2",
".X c #D7C9D7",
"XX c #CDD3D4",
"oX c #CDDAD6",
"OX c #D4D4D3",
"+X c #DBD5D6",
"@X c #D4DAD3",
"#X c #DADBD6",
"$X c #D5D4DA",
"%X c #DBD4DB",
"&X c #D5DADA",
"*X c #DCDCDB",
"=X c #E0D5DC",
"-X c #E2DCDD",
";X c #E5DCD8",
":X c #E4CFD4",
">X c #CAE2D4",
",X c #D5E2DB",
"<X c #DCE4DC",
"1X c #D9E6D9",
"2X c #D4EDD4",
"3X c #E3E3DE",
"4X c #E1EADE",
"5X c #E5F7DD",
"6X c #DDDCE2",
"7X c #DBD7E4",
"8X c #E3DDE3",
"9X c #E4DBE9",
"0X c #E8DAE7",
"qX c #ECD7EA",
"wX c #DDE4E2",
"eX c #DEE9E4",
"rX c #DAE6E7",
"tX c #DBF4E8",
"yX c #E4E4E4",
"uX c #EAE4E5",
"iX c #E4EAE4",
"pX c #E9EBE6",
"aX c #E5E5EA",
"sX c #EBE5EA",
"dX c #E5EBE9",
"fX c #ECEBEB",
"gX c #F2ECED",
"hX c #F1E7EA",
"jX c #ECF2EC",
"kX c #E6F5E8",
"lX c #F3F3ED",
"zX c #F5F9E9",
"xX c #EDEDF2",
"cX c #E8EAF6",
"vX c #F3E4F2",
"bX c #F3ECF3",
"nX c #F8ECF9",
"mX c #EDF2F3",
"MX c #EDFBF2",
"NX c #E6F6F4",
"BX c #F3F3F3",
"VX c #FAF4F5",
"CX c #F4FBF4",
"ZX c #FBFCF6",
"AX c #F5F3FA",
"SX c #FDF5FB",
"DX c #F5FDFB",
"FX c #FEFDFE",
"GX c #FDFDFD",
/* pixels */
"8XaX*XuX*XfX@XpX@XfX@XpX@XpX@XfX+XfX#XdX@XpXOXfX=XvX.XVX*X<X,X2 2 ,X<X*XAX.XbX%XbX+XgX*XfX#XxX&XjX@XjX[.fXOXgXOXfX@XpX*XfX-XuX-X",
"fXBXfXVXaXVXyXCXyXZXyXBXyXZX3XSXyXZXyXCXiXCXyXAXvXFXvXsXfXGXtX2 9 iXGXjXaXxXFXvXSXyXAXaXSXaXGXwXCX<XZX<XZX-XZX3XZXyXCXaXVXfXbXgX",
"*X8X*XyXOXyXOXaXOXpXOXyXOXaX[.pXOXuXOXiX@XiXOXuX X.X%XgX).i.r.$.-.u.u.).mX%X X XsX XuXOXaXOXaXXXiX'.pX(.pX_.fX[.aXOXaXOXyX%X8X*X",
"bXVXfXSXfXSXfXGXfXGXuXZXuXGXuXFXuXFXpXGXdXGXiXFXSXFXVXFX'.$ 5 :.:.1 $ '.FXVXFXVXFXuXGXfXFXfXFXaXFXyXFXyXFXyXFXuXFXpXGXfXSXfXVXBX",
"OX*XOX*XOXyX(.yX}.yX X8X XyX XyX_.yX(.wX'.<X(.yX(.uX).'.].5 6 &.&.6 1 ].'.).yX|.yX(.yX'.yX(.yX}.aX(.aX(.uX(.aX(.yX(.yXOX*XOX*X+X",
"BXVXBXFXfXFXfXFXfXFXfXFXfXFXfXFXsXFXfXFXjXGXdXFXBXFXBXZX5X; = 7.7.= ; 5XCXCXFXBXFXfXFXfXFXpXFXfXFXuXFXuXFXuXFXfXFXfXFXfXSXBXSXBX",
"OX#XOX*XOXyX XyX X8X X8X}.yX(.yX_.yX(.wX'.<X(.yX(.#X'.K.C.c i m m i c C.K.'.*X(.yX(.yX'.yX(.yX}.sX(.sX(.aX(.aX(.yX XyXOX*XOX*XOX",
"jXBXfXZXfXFXsXFXsXFXsXFXfXFXfXFXuXFXpXGXdXGXiXFXfXZX].1 # 4.5.~ ~ 5.4.# 1 ].GXfXFXiXGXdXGXfXFXuXFXsXFXaXFXaXFXaXFXuXZXfXSXfXBXmX",
"*X3X*XaX*XsX%XfX%XxXOXBXOXyX<XpXOXuX*XiX'.dX#XfX#XyXE.7 k *.` ~ ) ` *.6 1 E.pXOXfXOXfX'.fXOXfX+XhX%XfXOXyX*XaX*XuX+XfX*XaX*XwX,X",
"iXfXaXlXyXBX8XAX%XBX8XfXiXGX@XjXaXVX*XjXiXBXOXVX-XBX!.% k 5.+.F A W m k 7 ].ZXuXBX&XDXeXGXyXSX8XFX8XVX*XDXwXdXyXBX8XVXuXBXaXfXdX",
"yXpXyXfXyXBX8XAXfXFX6XmX<XkX1XMX@XlX<XmX&XBXaXSXuXCX!.5 k b d ' '  .2.k 1 Q.lX-XFX&XmX,XmXOXgX;XVX_.FXiXkX,XDX&XBX-XVXyXbXyXdXeX",
"*X3X*XaX%XsX%XfX).yXOXDXz.< F.kX#XpX@XCX).yX6X8X(.BX!.& : O.^ F D A b > * Q.gX*XbX}.NXoXdXOXVX;XgX).jXF.9 z.MXoXfX+XhX%XuX*XwX,X",
"jXlXfXZXfXFXsXFXfXFXeXDXz.  C.CX<XZX@XGXfXGXyXSXbXSX!.5 l 3.F D '  .3.k 7 '.SXsXGXaXGXeXGXiXGX;XZXlXZXF.. k.MXkXGXuXSXhXAXfXMXNX",
"OX#XOX-X X8X}.yXXXwXV.t.:.-.-.i.A.CX).@XOXfX).bX%X-XU.% - h Q [ I Q ` : * Q.sX%X9XXXeX/.iX(.uX_.3XF.i.i.0 :.i.z.yX_.;X_.-XOX&XoX",
"BXZXBXFXbXFXbXFX*XGXz.. $.g.7 . V.GXfXGXaXFXsXFXsXFX1Xq - 3.X.V I Q <.c 8 [.FXvXFXmXDXeXGXiXVXlXZXV.. 0 d.$.X p.GXgXFXgXFXVXDXMX",
"OX#X[.*X_.-X(.yXOXiXp.1 $.x #.x :.V.H.iX).yX$X8X~.A.z.; m S D I J D ~ : $ U.0X.X6XXXrX/.eXF.x.z.C.w.z &.>.z < p.yX_.;X_.*XOX*XXX",
"BXSXBXZXgXFXgXFX8XFXl.% &.3.} ..i # g.GXVXAXxXFX).O % 4.Q I m.J m.} S M $ OXFXvXFXxXGXMXZXj.  ; # y 9.` 8.2.& f.FXsXFXBXZXfXSXnX",
"$X*XOX*X[.3X X0X%XVXf.@ M ) C I g i d.I.Y.yX}.fXP.O z 5.' C J L V U Q f 5 J.T.`.xXL.L.F.K.g.z i f g X.D S f # i.fX}.yX@X<XOX9X=X",
"xXAXfXCXfXZXuXFX=XFXf.& n ..J K ) 2.N @ p.GXmXCX(.8 6 v  .Y J L m.J Q 3.=.2 O R.GXr.X & % N 7.<.~ S o.U ..b 6 p.FXaXZXpXCXfXSXnX",
"6XyX*XaX*XfX+XgX%XZXf.& M ) J J V ,.B # d.>X/.MXY.o c b  .I J L C C D W 4.7 O P.2Xy.4 k > M 3.~ 8.F U V ~ l & a.AX$XaX@XyX#XuX8X",
"aXxXaXjXyXBX-XVX=XGXf.& m ) J J T } b 7.$.4 :.DXE.O c 2.} J L J L n.[ A 2.N 5 7 , j #.<.b +.o.F F V | F 9.*.& a.FX8XBXyXjXiXbXsX",
"sXxXaXjX3XlX-XVX-XFXf.& m ..J L J J d 3.l # g.MXI.1 ; ( Q Y L J v.C C X.3.> , ; - ,.,.~ / H V J J C | S b x 2 p.FX9XBXyXjXyXfXaX",
"6XaX*XiX#XpX+XfX%XZXf.@ M ^ C J C b.E +.b #.@.@.$.@ , 6.Q J J L J J [ ' b - : n ( W A D | C C L P L U d y g./.*XbX%XuX*XyX@XyX*X",
"xXAXfXCXpXZXaXZX8XFXj.& n _ U P v.L J R S 3.#.> % 7 , ( ^ [ J P P P I A 8.M # 2.,.Q [ U K C b.J L P U ~ # g.DX6XFX0XFXfXBXdXBXjX",
"%X6X$X<X@X3X_.yXOXfXf.% x b F J J v.J K F ^ v #.N # : 2.Q C J J J J I A _ - = m ) ! I C P J L J L C } f # f.dXOXsX XyXOX3X@X<X@X",
"AXSXBXGXjXGXfXFXbXFXf.. x q./ U L v.J P K } Q 3.*., l 2.^ U E J K [ | Q 3.p p m  .! [ J T J L L L J ..M 4 l.BXBXFXfXFXgXZXjXCXjX",
"$X6XOX<X'.<X(.yX|.8XP.V.:.l h F C L C J J I D ) M - i m Q D J C C D Q W ( - - f Q D I C K C J J L C ` c < l.aX).yX_.yXOX8XOX*X@X",
"AXAXmXCXjXGXpXFXbXFXVXGXB.# f ..I T J P L T I X.` y p O.1.U K E R F }  .3.y y h  .] T J E K T L J F q.$.o l.FXjXGXpXFXbXFXBXCXjX",
"%X6XOX<X'.<X(.aX.XnX~.yXB.@ l 3.A I V C C J C F h p p f A D Z C F Z D d g u u g F C J C K C J C K S n -.a.x.fX'.<X].3X X9X$X*X@X",
"bXAXfXCXdXCXaXFXvXFX8XFXz.X c 6.) X.R E L v.L [ ^ 3.( u s ' o.Z K | ' u u h +.^ [ Y Y J E K U U | ~ = z.FXAXFX4XCX4XZXfXSXbXBXfX",
"6XyX*XiX@XiXOXfX.X0X7XAXz.$.>.n v ) G K J L J J G O.b u s D F V V Z D s u h +.G I J L C K Z I C Q f X l.FX.X8X@X5X{.pX*XsX9XaX*X",
"aXxXdXjX<XmXwXAX0XFX8XxXiXkXC.# b ) S U J v.J L Z ^ ` ) Q ! F R E Z U U } H } F T J Y J T Z K U 1.p % x.AX7XFX[.zX1XlXyXbXaXxXdX",
"aXmXrXDXdXkXiXjXaXFX*XBX<XDXV.& f / } U J b.L L J U U U U U I I K U K K T U K K T C n.L J C [ F 3.@.& B.kXeXjX3XgXuXgXfXAXwXNXtX",
"&XcXu.e r e %.;.q ;.r u.w u.t 1 a H F U C Y J J J J J J J J J J Z C J J J J J J J C J J U U ' s - z & 7 :.q ;.w r r r r e i.kXoX",
"VXGXr O 2 7 5 5 ; % 1 1 3 O 8 8 B ` ^ X.I ] Y Y Y K T T T T T T I I T T T K K K | F F G ...._ v : 7 7 % 1 $ 2 $ 2 2 2 9 3 ;.GXBX",
"h.s.w %.N &.j l m M n z =.%.q % > u s ^ A D D I C C C C C C J J C C J C C C D D F S ^ h ( p p p *.j x x &.$.*.#.#.j @.@.-.%.s.h.",
"o o :.0.6.8.1.1.!  . .) 2.4.B , - y f _ ^ } ' | U T R R T T T T Y Y ] ] [ [ ' } .._ 9.5.7.a i l q.H 8.+.O.H ^ ' N.{ 1.,.q.=.o O ",
"V.C.$.- b Q { I Y ] I [ A b f h p f g ^ F F D J C C C C C C C C J J J I I D D F ^ s u p M i k M ^ V R Z Z C L J J ] ! A y N C.S.",
"ZXzX:.: m _ } J L J J T U } H / / _ / X.U ' J K K K K K K K K K Y Y Y Y Y ' ' ' o.s y y u f 5.3.} K K C T T n.J I ] { v : :.zXZX",
"+X3Xi.e.B b d U J J J J J J K Z Z F V Z C J J L J J J J J K K J J J J J I I J D U d d u s g 8.G F J J J P V I I { d v #.d.i.;X:X",
"nXgXCXCX=.# ( / F | J J J b.L L J P J b.L L J b.L L Y Y T T U U U U K K T T T T T J U K | Z U U J Y Y L J J | ' Q <.# -.CXGXVXnX",
"7XaXaX@X:.$.x 5.h } C T C J C L J L J L J L J L J J J J J J D Z Z C C J J J J J L J J J L J J J J C J J L J ' S q.l $.w.<XyX9X9X",
"cXcXrXDX,XkX:.# M ` S | C M.Y M.L b.L L L v.L v.L L L Y Y T U U T T K K K L L L P L L J b.L Y L n.L L J T D F h # :.5X1XZXwXcXaX",
"cXAX6XmXjXCXi.& =.*.2.8. . .D D C Y C J J T J L J L L L J I I U K K K J J J J J J J L C I J I C V D ' } .._ m *.@ d.ZXpXfXaXAXcX",
"7XsX8X8X%XsX).[.i.7 7 ; : y M ,.W  .Q } H } Z I J J J L J J J K J J J J J J J J Z D } F } Q ) ) 6.M i : 4 7 2 i.#X).sX=XqX0XqXqX",
"VXSXbXSXbXbXBXSXs.+ * $ % % z 0.<.,.( 3.( _ H o.U I Y Y Y L K K L Y L Y I K U ' } ^ _ ` 3.( 6.4.0.@.1 $ + + + s.SXnXnXnXSXnXSXSX",
"[.#X[.yX#X6X$XaXY.G.L.I.J.J.g.7 k j i l a a f / F C J J J J J J J J J J J D D Q ) f f i x 6 c z @.g.P.G.Y.P.G.Y.6X&XrXXX<X#X;X`.",
"CXZXkXGXjXGXdXGXDXDXDXDXyXGXA.  < < & , > - u ..U K Y Y Y T T P Y Y Y Y Y U ' } ..u - = 7 $ 3 3 . V.GX*XFXSXFXAXGXrXDXkXGXpXZXzX",
"[.#XOX*X'.6X(.yX(.yX(.*X(.fXG.x.x.D.p.% a u d T C L J J C C U D C [ C J Y J L C U d u i 5 p.H.x.x.J.fX).*X(.yX(.wX(.<X'.*X[.#X[.",
"VXSXVXFXBXFXfXFXfXSXfXFXyXFXyXFXnXFXJ.& p ..| C P J L I ' | ' X.1.Q } I J J J P C | ..p & J.FXnXFXyXFXyXFXfXFXfXFXfXFXBXFXBXGXVX",
"OX*XOX*XOXyX(.yXOXyXOXfX(.fX(.pXE.P.B.= f ..U K J J U F } W d ~ ` g S ^ F U K J J U } f = B.P.E.fX(.fX(.fXOXyXOXyX(.yXOX*XOX*XOX",
"fXVXfXZXfXSXfXFXaXBXyXFX*XFXyXGXV.X c 6.` o.d m.Z o.G ^ ` - y O.O.y - ( _ S X.C | d ^ ) 6.n X V.GXyXFX*XFXyXVXaXFXfXSXfXSXfXVXBX",
"*XyX*XaX*XfXOXfXyXfX*XVXOXBX).1XC.= v 9.~ } F F H _ b O.*.i : 4.*.- : *.2.` / G H F o.S 9.f = B.<X).BXOXVX*XfXyXfXOXpX#XaX*XyX*X",
"aXfXaXfXyXBX*XVX*XBX*XfX*XVXx.2 &.6.b ,.~ ~ 8.` ` B *.# # N , N N , z # # *.O.( _ 8.^ g 8.v 5.@.9 x.VX*XfX*XBX*XVX*XBXyXjXaXfXaX",
"aXfXaXBXyXBXyXVXyXFXyXBXfXFXx.. @.4.m 5.<.b 2.4.*.>.$.N 5 ; z &.=.N ; 5 z $.>.4.2.m b ( q.m 0.@.. x.FXfXjXyXFX<XVX3XBXyXBXaXfXfX",
"*XyX*XaX*XfXOXfXOXaXOXfX(.aX).<XZ.k > l : n = 6 7 $.%.!.W.& z =.=.6 @ W.].-.q 5 6 : x i j : , B.<X).aX).fXOXaXOXfXOXfX*XaX*XyX*X",
"fXVXfXSXfXGXfXFXaXFXaXFXaXFXaXGXV.X @ % @ % $ o 3 . i.MX>X4 6 >.>.4 5 >XCXt.. 3 $ X % & @ @ $ V.GXaXFXaXFXaXFXaXFXfXGXfXSXfXVXBX",
"OX*XOX*XOXyX(.yX(.aX).aX).aX).yXE.G.G.J.K.J.G.P.G.L.G.oX].7 ; &.&.& 7 ].,XF.P.G.P.G.J.G.J.G.G.Q.aX).aX).aX).aX).yX(.yXOX<XOX*XOX",
"BXSXBXFXfXFXfXFXfXFXaXFXaXFXaXFXsXFXVXFXVXGXfXFXFXFXBXDX>X4 6 >.0.4 5 >XDXmXFXFXFXVXSXgXFXSXSXbXFXfXFXiXFXfXFXpXFXfXFXfXFXBXSXVX",
"OX*XOX*XOXyX(.yX(.aX).aX).aX).yX^.vX|.8X X*X_.8XU.%XXX&XE.< @.$.$.7 1 E.<X}.*X~.%X X%X_.0X|.vX|.uX).aX).aX(.aX(.yX(.yXOXwXOX*XOX",
"jXVXfXSXfXSXfXFXaXFXyXFXyXFXaXFXvXSX8XFXfXZXVXZXbXFXBXDX1X< $ :.r.& < ,XGXxXFXbXFXBXZXgXFX8XFXvXFXaXFXaXFXaXFXaXFXfXGXfXSXfXVXBX",
"*X*X*XyXOXaX@XaXOXfX(.fX(.fX(.fX.X9X(.BX(.*X*X3XOX8X XyX'.u.i.-.-.r.u.'.fX}.8XOXuXOX*XOXfX).sX|.fX(.fX(.fXOXfXOXaXOXaXOXyX*X3X*X",
"pXBXfXVXaXVXyXSXyXFXyXGXyXFXyXFXaXZXiXGX<XjXiXlXpXBXfXfXfXZXCX9 t jXDXfXBXuXVXaXCXiXjX4XGXiXSXyXGXyXSXyXFXyXGXyXSXaXSXfXVXfXBXfX",
"*XaX*XfX*XfX#XfX#XBXOXlXOXBXOXmX$XmX&X1X>XkX@XiX*XgX-XuXyXyX@X2 9 @XyX*XgX%XgX*X4X1XkX{.<X,XiX#XfXOXfXOXfXOXfXOXfX*XfX*XfX*XaXyX"
};
