/* XPM */
static char *xpm[] = {
"16 16 3 1",
"0 c None",
". c #FF5555",
"# c #330000",
"0000000000000000",
"000000..00000000",
"00000....0000000",
"0000......000000",
"0000......000000",
"00000....0000000",
"000000..00000000",
"000000..00000000",
"00000....0000000",
"0000......000000",
"0000......000000",
"00000....0000000",
"000000..00000000",
"0000000000000000",
"0000000000000000",
"0000000000000000"};
