/* XPM */
static char *_0993f2cf86f46cda4185886a3aaad85TJ9leLlRfhlMI3tA[] = {
/* columns rows colors chars-per-pixel */
"64 64 25 1 ",
"  c None",
". c #F56700",
"X c #F56900",
"o c #F56A00",
"O c #F56B00",
"+ c #F56C00",
"@ c #F56D00",
"# c #F66D00",
"$ c #F56E00",
"% c #F56F00",
"& c #F66E00",
"* c #F66F00",
"= c #F57000",
"- c #F67000",
"; c #F67100",
": c #F67200",
"> c #F67300",
", c #F67400",
"< c #F67500",
"1 c #F77500",
"2 c #F67600",
"3 c #F77600",
"4 c #F67700",
"5 c #F77700",
"6 c #F77800",
/* pixels */
"                                                                ",
"                                                                ",
"                                                                ",
"                            -------                             ",
"                           --,%----%                            ",
"                          %---%--%-,-                           ",
"                         -%-,,------,                           ",
"                         ,-,,-%%-,,-,                           ",
"                      -------,---,-----,----%%O%%--             ",
"       -----,,,,----,,---,--,,,-------,,---%%%OO%-----          ",
"      ,-------,,,---,,,,-,,,,,,---,-,-,--,--%%-----,,-%%        ",
"     -------,,,,,,,,6,,,,---%-,----,-,,,,,,,--,---%--,--        ",
"     -----%-----,,6,,-----,,-,,,,--,,,--,,,--,---%OO%----       ",
"     -------,,,,,66,,--%-,-,---,,,,,----,,-%-%----OO%----       ",
"     ---,--,-,,,,,--,,,%%-----,,,,---------%%----%-,-,---       ",
"     ---------,,,,,-,--%%%%--,-,,----,,-%%------%-,-,----       ",
"     ----------,6,,,-%%%%%%----------,-------,,-%,-----,--      ",
"     -------%%%%,-,,-%%%-----%%---%%-----------%-,,-------      ",
"     -------%%%                               -----%-%---       ",
"     --%------                                  ,-%%-----       ",
"     ---,-----                                  -,,----%-       ",
"     --%------               %                   %-,-----       ",
"      -----%-     %O%-%%%--%%-----%%%%,,--%%%    ---%---,       ",
"       ----%-   ,--%%--------------%-,,------%%  -%.O%%%        ",
"        ---    ,,----,-----,,,,,--%%-----%%%---   OO%%%         ",
"               ------,,,,,,-,,,-O%%--O%-%OO%---                 ",
"               %-,---,,,,,----,%O----%O%%O%%--%%                ",
"                -,,,-----------%%-----%-%%-%---                 ",
"                  --,--,,,,--------%%%%-%%%-%--                 ",
"                     -,,,,,,--%-%%%%%---%%----                  ",
"                   ,,66,,,---,--%%--                            ",
"                 ---,6,,--------%%-,,          ----%-           ",
"               ------,-----%--,-%-,,--       ------,,-          ",
"             --------%-,-%%---,,-,,----     ------,,,--         ",
"           %----,--%%%%--%---,,,--,--%-    --,,,-------         ",
"         ,----%---%%%%%%%--%-,,,-%-----   %%%%,,-%%--%-         ",
"       O-,,,-%%-----------  ---,-O%------%%%%%---%-%%%          ",
"      %%-,--------,-----   ,---,-%----,,-%%%%%-,-----%          ",
"      ,,-----%%-------    -,---,%----,,,-------------           ",
"      ----------%---    --------%--%-,,,----,,----%%-           ",
"       ---,-------    --,-%%%-,,---,-,,,,-,--%--%%--            ",
"        ------%     %%---%O%-,   %-,--,,%%---%%---%             ",
"                  %-%--%%-%%%   ,--,---%%----%%---              ",
"                %%OO%---%-%    ,,-----%-,----%%---              ",
"               %%%%%%,---    %%----,,-,-------%----,            ",
"               -------,    --%%-----,,-,,,,,,--,-----           ",
"                -----    O%%%%%%,----,,,---,,--,------          ",
"                       %O%%%%%%%---,,,,---,,-%-%-%%--,,         ",
"                     ---%%%%%%%%----------------,-,,,,,,        ",
"                    ----%----%%% ---,,---% --,,-,,,,,----       ",
"                   ,-----,,--%   --------   ,,--,---,,,---      ",
"                   %%-,,--,-    %%%%%%---    ,,----,6,,,,,      ",
"                    %-,,       %%%%%-%--       --,,,,,,,-,,     ",
"                            %%----------        -,,,,,,,,,      ",
"                         --------------           -,,,,--       ",
"                        ---%-%%-------              ,,,         ",
"                        --%%-%%%%%%%%%                          ",
"                        %%%-%--%-%%%%                           ",
"                        %%-----%%--                             ",
"                        ----,,-OO                               ",
"                           -                                    ",
"                                                                ",
"                                                                ",
"                                                                "
};
