/* XPM */
static char *xpm[] = {
"16 16 3 1",
"0 c None",
". c #00AA00",
"# c #003300",
"################",
"#..............#",
"#..............#",
"#..............#",
"#..............#",
"#..............#",
"#..............#",
"#..............#",
"#..............#",
"#..............#",
"#..............#",
"#..............#",
"#..............#",
"#..............#",
"#..............#",
"################"};
