/* XPM */
static char *xpm_[] = {
/* columns rows colors chars-per-pixel */
"64 64 180 2 ",
"   c #6B372B",
".  c #643B28",
"X  c #683833",
"o  c #753639",
"O  c #007B2F",
"+  c #08782B",
"@  c #127D2B",
"#  c #007A31",
"$  c #207F27",
"%  c #266830",
"&  c #517A1E",
"*  c #61671C",
"=  c #7D6411",
"-  c #7C5327",
";  c #784335",
":  c #705931",
">  c #7C5C3A",
",  c #665637",
"<  c #417F20",
"1  c #6F3B41",
"2  c #704340",
"3  c #7A4147",
"4  c #D7051B",
"5  c #D8061B",
"6  c #DB091B",
"7  c #DA121A",
"8  c #E10E19",
"9  c #E01117",
"0  c #E01018",
"q  c #B45B13",
"w  c #B94515",
"e  c #8C7918",
"r  c #B7661B",
"t  c #9B5024",
"y  c #87463F",
"u  c #844A39",
"i  c #8C4C3D",
"p  c #8D503B",
"a  c #945B35",
"s  c #95533D",
"d  c #9B5A3B",
"f  c #995E36",
"g  c #A05D3C",
"h  c #94642D",
"j  c #9C6C2B",
"k  c #996A2A",
"l  c #9E7028",
"z  c #9C7126",
"x  c #9D6234",
"c  c #9F6830",
"v  c #A36E2E",
"b  c #AB7D25",
"n  c #A6752B",
"m  c #AB752E",
"M  c #AD792B",
"N  c #A57826",
"B  c #B37F2A",
"V  c #A26636",
"C  c #A56A34",
"Z  c #A86839",
"A  c #A76837",
"S  c #A77030",
"D  c #AC7133",
"F  c #AD7C30",
"G  c #D34113",
"H  c #CC5413",
"J  c #D56212",
"K  c #813D43",
"L  c #894641",
"P  c #8D4049",
"I  c #8E4942",
"U  c #904745",
"Y  c #944C43",
"T  c #994E45",
"R  c #954948",
"E  c #9C4D4A",
"W  c #965042",
"Q  c #9C5443",
"!  c #9E5841",
"~  c #9E5048",
"^  c #935049",
"/  c #A15545",
"(  c #A55A44",
")  c #AA5D45",
"_  c #A35349",
"`  c #05832E",
"'  c #0B852D",
"]  c #0A8A2F",
"[  c #14862D",
"{  c #19882C",
"}  c #008432",
"|  c #078930",
" . c #098A30",
".. c #268628",
"X. c #2A8A28",
"o. c #308E28",
"O. c #348525",
"+. c #339123",
"@. c #4F8A1F",
"#. c #6B8E1A",
"$. c #7E8A16",
"%. c #6C981C",
"&. c #779A1A",
"*. c #4D8720",
"=. c #908610",
"-. c #999C13",
";. c #869B17",
":. c #A38E0C",
">. c #B3960B",
",. c #A28F18",
"<. c #B88512",
"1. c #BF9812",
"2. c #BD941E",
"3. c #9CB616",
"4. c #B3AC0F",
"5. c #BEA519",
"6. c #A9BF17",
"7. c #A8B814",
"8. c #958423",
"9. c #869220",
"0. c #AD8222",
"q. c #A18623",
"w. c #B68923",
"e. c #BB8D23",
"r. c #B38927",
"t. c #BD9122",
"y. c #DE8B0F",
"u. c #DE940F",
"i. c #DF8613",
"p. c #C0951F",
"a. c #C59A1D",
"s. c #C99E1D",
"d. c #E6800E",
"f. c #EF970E",
"g. c #F1990F",
"h. c #E48F10",
"j. c #C7AC0F",
"k. c #D6BD0B",
"l. c #CEAD14",
"z. c #C5A31C",
"x. c #CAA21A",
"c. c #CDAA1B",
"v. c #C3A017",
"b. c #D3AD16",
"n. c #D1AA18",
"m. c #CABD12",
"M. c #D4B313",
"N. c #DAB316",
"B. c #D7B812",
"V. c #DEBB12",
"C. c #DBB318",
"Z. c #E3A80D",
"A. c #F6A00C",
"S. c #C69822",
"D. c #C19124",
"F. c #AAC116",
"G. c #B0C814",
"H. c #DCC00C",
"J. c #D2C00C",
"K. c #E4C50C",
"L. c #EAC70D",
"P. c #ECCD0C",
"I. c #E4C80A",
"U. c #F0CA08",
"Y. c #EDD109",
"T. c #E7DA06",
"R. c #FED707",
"E. c #F5D906",
"W. c #FBDD07",
"Q. c #F2D409",
"!. c #F6D909",
"~. c #FCDD09",
"^. c #F5D609",
"/. c #E4C111",
"(. c #FFE306",
"). c #FFEA04",
"_. c #F0E00A",
"`. c #FFE208",
"'. c #FEEA08",
"]. c #FFF203",
/* pixels */
"| | | | | | | | | | | | | | | | | | | | | | | | | | | | | | | | | | | | | | | | | | | | | | | | | | | | | | | | | | | ] | | | | ",
"| | | | | | | | | | | | | | | ] | | | | | | | | | | | | | | | | | | | | | | | | | | | | | | | | | | | | | | | | | | | | | | | | ",
"| | | | | | | | | | | | | | | | | | | | | | | | | | | | | | | | | | | | | | | | | | | | | | | | | | | | | | | | | | | | | | | | ",
"| | | | | | | | | | | | | | | | | | | | | | | | | | | | | | | | | | | | | | | | | | | | | | | | | | | | | | | | | | | | | | | | ",
"| | | | | | | | | | | | | | | | | | | | | | | | | | | | | | | | | | | | | | | | | ] | | | | | | | | | | | | | | | | | | | | | | ",
"| | | | | | | | | | | | | | | | | | | | | | | | | ] | | | | | | | | | | | | | | | | | | | | | | | | | | | | | | | | | | | | | | ",
"| | | | | | | | | | | | | | | | | | | | | | | | | | | | | | | | | | | | | | | | | | | | | | | | | | | | | | | | | | | | | | | | ",
"| | | | | | | | | | | | | | | | | | | | | | | | | | | | | | | | | | | | | ] | | | | | | | | | | ] | | | | | | | | | | | | | | | ",
"| | | | | | | | | | | | | | | | | | | | | | | | | | | | | | | | | | | | | | | | | | | | | | | | | | | | | | | | | | | | | | | | ",
"| | | | | | | | | | | | | | | | | | | | | | | | | | | | | | | | | | | | | | | | | | ] | | | | | | | | | | | | | | | | | | | | | ",
"| | | | | | | | | | | | | | | | | | | | | ] | | | | | | | | | | ] | | | | | | | | | | | | | | | | | | | | | | | | | | | | | | | ",
"| | | | | | | | | | | | | | | | | | | | | | | | | | | | | | | | ] | | | | | | | | | | | | | | | | | | | | | | | | | ] | | | | | ",
"| | | | | | | | | | | | | | | | | | | | | | | | | | | | | | | | | | | | | | | | | | | | | ] | | | | | | | | | | | | | | | | | | ",
"| | | | | | | | | | | | | | | | | | | | | | | | | | | | | | | | | ] | | | | | | | | | | | | | | ] | | | | | | | | | | | | | | | ",
"| | | | | | | | | | | | | | | | | | | | | | | | | | | | | | | | | | | | | | | | | | | | | | | | | | | | ] | | | | | | | | | | | ",
"| | | | | | | | | | | ] | | | | | | | | | | | | | | | | | } | | | | | | ] } | | | | | | | | | | | | | | ] } ] | | | | | | | | | ",
"| ] | | | | | | | | |  .| | | | | | | | | | | | | | | | ..[ ] | | | | | ` X.' |  .| | | | | | | | | | | | | | | | | | | | | | | ",
"] ] | | | | | | | | | | | | | | | | | | | | | | | | ] } &.4.' | | | | ` @.U.7.` |  .| | | | | | | | | | | | | | | |  .| | | | | ",
"| | | | | | | |  . .|  .| | | | | | | | |  .| | ] | | | o.%.{ | | | | | =.:.>.< | | | | | | | | | | | |  . .|  .| | | | | | | | ",
"] ] ] ] ] ] ] ]  . . . .] ] ] ] ] ] ] ] ] ] ]  .] O # + # [ #.} ] ]  .| $.>.:.O.|  .] ] ]  .| | ] ] ] ]  . . . .] ] ] ] ] ] ] ] ",
"} } } } } } } } } } } } } } } } } } } } } } } } } *.o.& ;.` $ @ | } } % * = e ' | } } } } } } } # } } } } } } } } } } } } } } } ",
"F.F.F.F.6.6.F.F.F.F.F.F.F.F.F.F.F.F.F.F.F.F.F.F.3.w H q G <.$.-.F.F.3.. E X ( , 9.G.6.F.F.F.F.F.F.F.F.F.F.F.F.F.F.F.F.F.F.F.F.F.",
"`.`.`.`.`.`.`.`.`.`.`.`.`.`.`.`.`.`.`.`.`.`.(.(.`.Q.u.Z.L.J d.E.K.'.~.a / s ) o 1.].`.`.`.`.`.`.`.`.`.`.`.`.`.`.`.`.`.`.`.`.(.(.",
"~.W.!.W.W.!.~.W.!.~.W.!.~.W.~.~.!.`.!.!.`.!.~.W.W.`.'.`.!.T.J.L.k.Y.x._   W   ; B.`.!.W.~.W.W.W.~.~.!.~.~.!.`.!.~.W.`.!.~.!.~.W.",
"~.~.~.`.~.~.~.~.~.~.~.~.~.~.~.~.`.~.~.~.~.~.~.W.~.W.!.~.P.- K f E.k.a Q ( s Q Q N.`.~.~.~.~.~.~.~.~.~.~.~.~.~.~.~.~.~.~.~.~.~.~.",
"~.~.~.~.~.`.W.~.~.~.~.~.~.~.`.~.W.~.~.~.~.~.~.(.(.(.(.'.].C.D j P.I.k T ) u ! _ w.'.~.~.~.~.~.~.~.~.~.~.~.~.~.~.~.~.~.`.~.~.~.~.",
"~.W.~.~.~.~.~.~.~.~.~.`.~.~.~.~.~.~.~.~.~.W.`.c.c c n e.c.K.l.N W.x.z Z i ; u Y m `.~.~.~.~.~.~.~.~.`.~.~.~.~.~.~.~.~.~.`.~.~.~.",
"~.~.~.~.~.~.~.~.~.~.~.~.~.~.~.~.~.~.~.`.W.(.V.d x.n.a.w.b n b /.].x.u 0.i d p y 0.`.!.~.~.~.~.~.~.~.~.~.~.~.`.~.~.~.~.W.~.~.~.~.",
"~.~.~.~.~.~.~.~.~.~.~.~.~.~.~.~.~.~.~.~.~.'.D.e.].(.].E.x.2.M.K.K.M U j m Y ( I x.(.W.W.~.~.~.`.~.~.`.~.~.~.~.~.~.~.~.~.~.~.~.~.",
"~.~.~.~.~.~.~.~.~.~.~.~.~.~.~.~.~.~.~.~.~.'.S.m ).W.s.d E Q W Q W Q s W 0.d Q y s.'.~.W.~.~.~.~.~.~.~.~.~.~.~.~.~.~.~.~.~.~.~.~.",
"~.~.~.~.~.`.~.~.~.~.~.~.~.~.~.`.~.~.~.`.~.~.K.W S n Y ( ( ( ) ( ) ( s W a b W i p.'.~.~.~.~.~.~.~.~.~.~.~.~.~.~.~.~.~.~.~.~.~.~.",
"~.`.~.~.~.~.~.~.~.~.~.`.~.~.~.~.~.~.~.~.~.~.(.b.V s / ( ( ( ( ( ( ( ( p Y z k K l.`.~.~.~.~.~.~.~.~.~.~.~.~.~.`.~.~.~.~.`.~.~.~.",
"~.~.~.~.~.~.~.~.`.~.~.~.~.`.~.~.~.~.~.~.~.~.W.`.).B _ ( ( ( ( ( ( ( ( s W s b x Y.`.W.~.~.~.~.~.~.~.~.~.`.~.~.~.~.~.~.~.~.~.~.~.",
"~.~.~.~.~.~.~.~.~.~.~.~.~.~.~.~.~.~.~.~.~.~.W.~.Q.V ( ( ( ( ( _ _ ( ( ( ( i a l.(.W.W.~.~.~.~.~.~.~.`.~.~.~.~.~.~.~.~.~.~.~.~.~.",
"~.~.~.~.~.~.~.~.~.~.~.~.~.~.~.~.~.~.~.~.~.~.~.(.e.E ) ( W s s n C Q ( ( ) ) W l H.(.`.~.~.~.~.~.~.~.~.~.~.~.~.~.~.~.~.`.~.`.~.~.",
"`.~.~.~.~.`.~.~.~.~.~.~.~.~.~.~.`.~.~.~.~.W.'.K.Q ( ) d s ) E n.).M R i i W Q E d C P.`.~.~.~.~.~.~.~.~.~.~.~.~.~.~.~.~.~.~.~.~.",
"~.~.~.~.~.~.`.~.~.~.~.~.~.~.~.~.~.~.~.~.W.`.M.C ( ) U x.M./ Y 2.'.!.w.h p U w.2.U 1 5.`.~.~.~.~.~.~.~.~.~.~.~.~.~.~.~.~.~.~.~.~.",
"~.~.~.~.~.~.~.~.~.~.~.~.~.~.~.~.~.~.~.~.`.0.Y _ T L h W.L./ Y M.`.~.'.V.( Q V.).q.,.Y.`.~.~.~.~.~.~.~.~.~.~.~.~.~.~.~.~.~.~.~.~.",
"~.~.~.~.~.~.~.~.~.~.~.~.~.~.~.~.~.~.~.~.W.c / v 0.v.P.'.a.R M `.W.~.~.~.Z _ b.(.W.!.k.~.~.~.~.~.~.~.`.~.~.~.~.~.~.~.~.~.`.~.~.~.",
"~.~.~.~.~.~.~.~.~.~.`.~.~.~.~.~.~.~.~.~.(.M M ).).(.`.^.g Q P.'.~.~.~.(.s.K c.].~.`.K.Q.~.~.~.~.~.~.~.~.~.~.`.~.`.~.~.~.~.~.~.~.",
"~.~.~.~.R.~.R.~._.~.~.~.~.R.~.~.~.~.~.~.Q.d / c l.`.!.`.a.R s.L.~.W.~.!.!.x D c.V.~.~.~.~.!.~.~.~.~.~.~.~.!.~.~.~.~.~.~.~.~.~.~.",
"'.'.'.'.'.'.'.`.'.'.'.'.'.'.'.'.'.'.'.'.'.z.F > m.].'.'.].r.3 : E.'.'.'.].c.^ 2 8.].`.'.'.'.'.'.`.'.'.'.`.'.'.'.'.(.'.'.`.'.'.`.",
"g.g.g.g.g.g.g.g.g.g.A.A.g.g.g.g.g.g.g.g.g.A.g.y.g.g.f.f.g.h.t r g.g.g.g.A.i.r r h.A.g.g.g.g.g.A.g.g.g.g.g.g.A.g.g.g.g.g.g.g.g.g.",
"5 5 5 5 4 5 5 5 5 5 5 7 4 4 4 4 4 4 4 4 5 5 5 6 5 5 5 7 5 6 9 0 4 4 4 4 5 6 0 9 4 5 4 4 5 4 4 7 4 4 5 5 4 4 7 7 5 5 5 5 5 5 5 5 ",
"7 7 7 7 7 7 7 7 7 7 7 7 7 7 7 7 7 7 7 7 7 7 7 7 7 7 7 7 7 7 7 7 7 7 7 7 7 7 7 7 7 7 7 7 7 7 7 7 7 7 7 7 7 7 7 7 7 7 7 7 7 7 7 7 ",
"7 7 7 7 7 7 7 7 7 7 7 7 7 7 7 7 7 7 7 7 7 7 7 7 7 7 7 7 7 7 7 7 7 7 7 7 7 7 7 7 7 7 7 7 7 7 7 7 7 7 7 7 7 7 7 7 7 7 7 7 7 7 7 7 ",
"7 7 7 7 7 7 7 7 7 7 7 7 7 7 7 7 7 7 7 7 7 7 7 7 7 7 7 7 7 7 7 7 7 7 7 7 7 7 7 7 7 7 7 7 7 7 7 7 7 7 7 7 7 7 7 7 7 7 7 7 7 7 7 7 ",
"7 7 7 7 7 7 7 7 7 7 7 7 7 7 7 7 7 7 7 7 7 7 7 7 7 7 7 7 7 7 7 7 7 7 7 7 7 7 7 7 7 7 7 7 7 7 7 7 7 7 7 7 7 7 7 7 7 7 7 7 7 7 7 7 ",
"7 7 7 7 7 7 7 7 7 7 7 7 7 7 7 7 7 7 7 7 7 7 7 7 7 7 7 7 7 7 7 7 7 7 7 7 7 7 7 7 7 7 7 7 7 7 7 7 7 7 7 7 7 7 7 7 7 7 7 7 7 7 7 7 ",
"7 7 7 7 7 7 7 7 7 7 7 7 7 7 7 7 7 7 7 7 7 7 7 7 7 7 7 7 7 7 7 7 7 7 7 7 7 7 7 7 7 7 7 7 7 7 7 7 7 7 7 7 7 7 7 7 7 7 7 7 7 7 7 7 ",
"7 7 7 7 7 7 7 7 7 7 7 7 7 7 7 7 7 7 7 7 7 7 7 7 7 7 7 7 7 7 7 7 7 7 7 7 7 7 7 7 7 7 7 7 7 7 7 7 7 7 7 7 7 7 7 7 7 7 7 7 7 7 7 7 ",
"7 7 7 7 7 7 7 7 7 7 7 7 7 7 7 7 7 7 7 6 7 7 7 7 7 7 7 7 7 7 7 7 7 7 7 7 7 7 7 7 7 7 7 7 7 7 7 7 7 7 7 7 7 7 7 7 7 7 7 7 7 7 7 7 ",
"7 7 7 7 7 7 7 7 7 7 7 7 7 7 7 7 7 7 7 7 7 7 7 7 7 7 7 7 7 7 7 7 7 7 7 7 7 7 7 6 7 7 7 7 7 6 7 7 7 7 7 7 7 7 7 7 7 7 7 7 7 7 7 7 ",
"7 7 7 7 7 7 7 7 7 7 7 7 7 7 7 7 7 7 7 7 7 7 7 7 7 7 7 7 7 7 7 7 7 7 7 7 7 7 7 7 7 7 7 7 7 7 7 7 7 7 7 7 7 7 7 7 7 7 7 7 7 7 7 7 ",
"7 7 7 7 7 7 7 7 7 7 7 7 7 7 7 7 7 7 7 7 7 7 7 7 7 7 7 7 6 7 7 7 7 7 7 7 7 7 7 7 7 7 7 7 7 7 7 7 7 7 7 7 7 7 7 7 7 7 7 7 7 7 7 7 ",
"7 7 7 7 7 7 7 7 7 7 7 7 7 7 7 7 7 7 7 7 7 7 7 7 7 7 7 7 7 7 7 7 7 7 7 7 7 7 7 7 7 7 7 7 7 7 7 7 7 7 7 7 7 7 7 7 7 6 7 7 7 7 7 7 ",
"7 7 7 7 7 7 7 7 7 7 7 7 7 7 7 7 7 7 7 7 7 7 7 7 7 7 7 7 7 7 7 7 7 7 7 7 7 6 7 7 7 7 7 7 7 7 7 7 7 7 7 7 7 7 7 7 7 7 7 7 7 7 7 7 ",
"7 7 7 7 7 7 7 7 7 7 7 7 7 7 7 7 7 7 7 7 7 7 7 7 7 7 7 7 7 7 6 7 7 7 7 7 7 7 7 7 7 7 7 7 7 7 7 7 7 7 7 7 7 7 7 7 7 7 7 7 7 7 7 7 ",
"7 7 7 7 7 7 7 7 7 7 7 7 7 7 7 7 7 7 7 7 7 7 7 7 7 7 7 7 7 7 7 7 7 7 7 7 7 7 7 7 7 7 7 7 7 7 7 7 7 7 7 7 7 7 7 7 7 7 7 7 7 7 7 7 ",
"7 7 7 7 7 7 7 7 7 7 7 7 7 7 7 7 7 7 7 7 7 7 7 7 7 7 7 7 7 7 7 7 7 7 7 7 7 7 7 7 7 7 7 7 7 7 7 7 7 7 7 7 7 7 7 7 7 7 7 7 7 7 7 7 ",
"7 7 7 7 7 7 7 7 7 7 7 7 7 7 7 7 7 6 7 7 7 7 7 7 7 7 7 7 7 7 7 7 7 7 7 7 7 7 7 7 7 7 7 7 7 7 7 7 7 7 7 7 7 7 7 7 7 7 7 7 7 7 7 7 ",
"7 7 7 7 7 6 7 7 7 7 7 7 7 7 7 7 7 7 7 7 7 7 7 7 7 7 7 7 7 7 7 7 7 7 7 7 7 7 7 7 7 7 7 7 7 7 6 7 7 7 7 7 7 7 7 7 7 7 7 7 7 7 7 7 ",
"7 7 7 7 7 7 7 7 7 7 7 7 7 7 7 7 7 7 7 7 7 7 7 7 7 7 7 7 7 7 7 7 7 7 7 7 7 7 7 7 7 7 7 7 7 7 7 7 7 7 7 7 7 7 6 7 7 7 7 7 7 7 7 7 ",
"7 7 7 7 7 7 7 7 7 7 7 7 7 7 7 7 7 7 7 7 7 7 7 7 7 7 7 7 7 7 7 7 7 7 7 7 7 7 7 7 7 7 7 7 7 7 7 7 7 7 7 7 7 7 7 7 7 7 7 7 7 7 7 7 "
};
