/* XPM */
static char *_524d7d69d3c40c2f96c958bef5df8335IC1tWIgmdTWUBNH[] = {
/* columns rows colors chars-per-pixel */
"62 62 175 2 ",
"   c #336605",
".  c #366906",
"X  c #3A6C06",
"o  c #356609",
"O  c #366A0B",
"+  c #3B6D0D",
"@  c #3C7205",
"#  c #3D720D",
"$  c #3A6712",
"%  c #376C10",
"&  c #3C6D12",
"*  c #3E7213",
"=  c #43770E",
"-  c #467A0E",
";  c #416F17",
":  c #427515",
">  c #447914",
",  c #4A7D16",
"<  c #44751A",
"1  c #48771D",
"2  c #467A1B",
"3  c #497C1C",
"4  c #4B7C21",
"5  c #4C8012",
"6  c #478019",
"7  c #4B811C",
"8  c #50841F",
"9  c #568F1E",
"0  c #5F921E",
"q  c #4E8123",
"w  c #528522",
"e  c #5B8D21",
"r  c #5C8E2C",
"t  c #5C9424",
"y  c #5E9827",
"u  c #5D942C",
"i  c #5E992B",
"p  c #5B8D30",
"a  c #5E9431",
"s  c #608D2C",
"d  c #629624",
"f  c #659A26",
"g  c #699C27",
"h  c #62962C",
"j  c #639B2D",
"k  c #699D2D",
"l  c #629633",
"z  c #6A9637",
"x  c #659C33",
"c  c #6A9D34",
"v  c #649539",
"b  c #69973D",
"n  c #669B39",
"m  c #6A9D3B",
"M  c #719E3E",
"N  c #66A02F",
"B  c #6CA12D",
"V  c #70A32F",
"C  c #66A133",
"Z  c #68A232",
"A  c #6AA233",
"S  c #68A033",
"D  c #68A433",
"F  c #6AA433",
"G  c #68A035",
"H  c #69A134",
"J  c #6BA034",
"K  c #68A335",
"L  c #6AA235",
"P  c #6BA036",
"I  c #6BA336",
"U  c #69A237",
"Y  c #6CA135",
"T  c #6EA337",
"R  c #69A534",
"E  c #6AA434",
"W  c #69A436",
"Q  c #6AA436",
"!  c #6CA435",
"~  c #6EA435",
"^  c #6CA635",
"/  c #6CA437",
"(  c #6CA636",
")  c #6EA637",
"_  c #6BA234",
"`  c #6EA835",
"'  c #67A039",
"]  c #69A038",
"[  c #6BA038",
"{  c #6BA338",
"}  c #6BA23A",
"|  c #6CA439",
" . c #6FA438",
".. c #6CA53A",
"X. c #6FA43A",
"o. c #6DA63B",
"O. c #6AA13C",
"+. c #6BA23D",
"@. c #6DA13C",
"#. c #6BA43D",
"$. c #6DA53C",
"%. c #6CA33A",
"&. c #6EA83B",
"*. c #71A534",
"=. c #74A935",
"-. c #79A834",
";. c #71A539",
":. c #71A53B",
">. c #71A93C",
",. c #70AA3C",
"<. c #72AE3D",
"1. c #74AE3D",
"2. c #73AA3B",
"3. c #79AD3D",
"4. c #6C9E42",
"5. c #719C40",
"6. c #6EA440",
"7. c #73A742",
"8. c #74A740",
"9. c #72A542",
"0. c #76AD47",
"q. c #73AA41",
"w. c #72A34A",
"e. c #78AC48",
"r. c #7CB242",
"t. c #8DBF4E",
"y. c #8DC24E",
"u. c #92C54F",
"i. c #8DC353",
"p. c #93C654",
"a. c #90CB57",
"s. c #95CA55",
"d. c #99CD56",
"f. c #93C65A",
"g. c #96CA5E",
"h. c #96CF5E",
"j. c #95CB5B",
"k. c #9ACE5B",
"l. c #97D05F",
"z. c #9DD25C",
"x. c #A1D35E",
"c. c #97C462",
"v. c #95CB61",
"b. c #9BCE62",
"n. c #97D161",
"m. c #99D362",
"M. c #98D261",
"N. c #9BD463",
"B. c #9DD661",
"V. c #9CD562",
"C. c #9DD663",
"Z. c #9ED464",
"A. c #9DD362",
"S. c #9FD863",
"D. c #9FDA66",
"F. c #9FD867",
"G. c #9DD069",
"H. c #9FD768",
"J. c #9ED36A",
"K. c #A2D563",
"L. c #A5DA64",
"P. c #A9DB66",
"I. c #A0D06D",
"U. c #A4D76E",
"Y. c #A2D569",
"T. c #A1DB6A",
"R. c #A5DB6A",
"E. c #AADD6B",
"W. c #A7DB71",
"Q. c #AADC73",
"!. c #AEE26D",
"~. c #B1E46E",
"^. c #ACE271",
"/. c #B0E072",
"(. c #B4EA76",
/* pixels */
"s z m h h h l c c m z z c l c c k c c c l c c x j c c c l c c c k c l c l c x j j c l c x x l l j ( c j ;.g.U.c h G.I.m r 5.",
"z z m l 8.x c c c c c c z G x c T j c c c l c G Z Z j j c c l c c j c l c l G c c c c x c x c | ] y j T T c l c  .l h m M l ",
"l @.7.u | x G j c j G | j x Z Z ( Z ( j ( G G C C C C j x x c l ] l c n c c ] C c x | u ] x l c u | | x x j c j x x c x z m ",
"l l ] G ,.j Q j ,.x t Z ( j Q m.h.H.n.t x C C G C x C C C x x > , + 3 1 : c u l x j $.l x > > x $.x u j T G G G Q | | x l l ",
"l c x G ( j Z N y F Z j j N N a.F.T.m.1.<.y C j C x C Q C x x # 3 O : : % m n 0.n x +.a +.: : l $.x j C ( x j j j C Q G G j ",
"c T c j j j j C.N.C.C.j j C.S.C.S.j t ( t Z C F C C x C x l #.u b 2 2 : & : 2 l a +.n * 2 # : l u x ] x j j j C Q j j C G Z ",
"k c c ( B ^ =.C.j.K.A.B B s.L.L.z.j B N 9 1.j Q Z j j x G x x c l 1 4 & < + : c 6.+.n : : * 2 l ] x &.y j | j Q Q C C C j j ",
"k k k A.k.s.z.B B z.E.z.z.z.z.g B k.E.z.K.j j Z ( x C G ] ] h $.n v v & 2 < : c c 3 2 * 2 * * l l j x c T j j j C D Q C j j ",
"f *.Y A.z.!.z.g =.k.p.k.E.L.L.B d z.C.k.^.j f T x c c | l u m c m m v & + : 2 l n : : 2 & : 2 m l Z ;.j f Y *.j t F G Z x x ",
"k *.d Y B z.K.k.k.*.*.K.z.f f z.E.s.z.Y d ( Z Z G j G G u 7 : X : & 1 & < l l z 6.+ * * < b m v.Y.A.s.*.*.k.f.3.j C Q j j x ",
"h ( Z Z 1.a.R.z.j.=.B j.K.f k a.z.^.s.j Z Z x C j x j x u > , # : < & + 4 n m m l : : : : c :.b.b.R.K.d k K.Y.j c Z | j h c ",
"h G j j j 2.t F.C.j j j Z j Z 2.j j j j Q j G C C x C | &.x u 7 : < 1 & & 2 + m 9.l m l 7.h h j *.z.k.B *.k.K.d f d j T :.h ",
"x Z G ( j j Q T.m.j 1.j t | j Z Z N &.&.Q x C x x l j j ] x u 7 + : 2 : * : , l l m n n c  .3.0 f x.x.f *.x.K.k ;.r.Y j T h ",
"h x G &.C C Z j x x x x $.j x x j j Z j y &.] x | &.G C l l #.c c c m c l @.c : 2 3 : n c I.k.P.P.L.x.x.L.k.K.t Z i.k.C.A.*.",
"c l j G j x x t  . .x h :.h 7.c c j j ,.G G $.u x i x ] x ] n c c c c c c c c * : & O m c v.A.z.s.z.P.k.p.E.z.k =.s.R.K.k.j ",
"c c l G j x C | ] , # # , # : c | j c  .x u x 6 6 > > l l c ] x x x G G x l n 3 * < : 2 2 c h L.L.k g z.L.k.E.s.z.R.h.j c f ",
"j ;.C Q x ] j $.u # : # : 2 2 n l 7.c u c m l 2 > + * x l ] x j y C x Q G x a : * * 2 o o c  .g.A.Y k K.E.k.s.Y.g.g.A.T c M ",
"j x x Q l G | x ] ' x : * : * 2 : l c : 2 : : + 4 # 2 n ] x j G Q R j N x x ] u 9.& : q : c c h =.t Y K.i.5 @ Y.I.c c c m r ",
"l x C | l x | i x C l : : : 2 O > c l 2 : & & 4 & > 3 l ] j x j x x x G Q j l n l 3 : : # c c c Z f T C.g.- , v.G.h l c m h ",
"l  .x G j C i C | C ] x n * 2 2 + m m O 4 * 4 < * a @.u G | &.y C | G j G G C q.n : > c c $.G c Z ( h c T # # X , 8 , l m 3 ",
"l c l x x | j Q Q i G ] +.* * 2 < n v 1 < < < O < l 9.l ] x C j j x j j Z G j x u : 3 ] ] j j Z j ( x y h 7 : # # : O b b + ",
"c @.n ] ] x | C G x c a 9.n n v n : & 4 : p n v 4.m c c  .h Z ( | G Z G Z Z T G $.x c ] x j j ` j j ( | @.a u 7 * 1 : 4 1 < ",
"l c a $.] u G y j C $.l +.n n a v 4 < < : b 4.v 4.l u :.2.j f f j f f ( Z f Z j j | c y x C j ( t j ( x c n m & & 4 * & 4 $ ",
"2 , > l | x x C G ] $.x a * * : 2 4.b * & 4 * : < : 7 f.f.k k *.*.j B j.A.2.k Y j l x C &.Q j G j Q | u c @.v 4.n * : : 4 $ ",
". 2 > u | C x x x l x n n 4 3 2 O m n & < & & 2 : : X W.K.*.k d f d B K.K.f t =.Z T G j j j C C x | &.x x l v 6.p 4 4 : $ 4 ",
", c l ] G j x G x 6 * * 3 * * * 3 n 4.m n 1 < + # , = b.K.A.K.g V d.x.z.s.B ^ A.C.T.j.G G G C Q x j x $.x 2 : 2 2 * + b 4.; ",
"# c ] ] G j C C u 3 3 * 3 * + 7 : u m @.n : : : > # = A.s.A.k.B B z.P.L.u.*.=.s.k.L.m.j j G G | j x l 6.n # : < * : < v b : ",
"l q.| x C N C i ] n l : * * * l n 7.@.u @.l c u  .:.d *.3.k.L.z.k.s.s.L.E.s.y.(.k.d Z j Z x u x C G h x x 3 2 O 2 l m m 9.v ",
"c c x x Z C C i l #.n 3 : 3 7 l x ] l u @.c  . .h x 2.d d k.z.z.!.k.z.P.K.K.z.z.j.k ^ j j Z Q Q Q G l ] c > # # > l l c m h ",
"h j x Q Z N G | C x l a a l l ] j G G x G l j U.m.h.C.j d E.d.z.k.g B z.s.L.P.d B j.R.C.h.( C x y x x x l # , v.v.:.h h c z ",
"l  .| &.C N x C $.' x $.@.] x | C Z G x | x j v.A.C.h.k *.p.L.P.z.f k A.A.K.s.V B z.K.j.L.N j j j | G G G > > W.A.:. .c c h ",
"u G j y t N j x j x l l u j j x Z j j j j j q.j T A.L.z.z.B V u.K.Y Y A.s.*.*.z.L.k.z.j ^ j ( Z G C y y T h t Q.a.p.b.2.k c ",
"t *.T ( ( j <.Q y &.j G u &.G C N F Q &.G C j t Z F.s.P.j.f B z.z.Z t U.Q.h f z.z.z.L.=.j ( ( j y ` N Y =.f *.A.k.(.h.f c h ",
";.p.A.R.a.Z j Z j &.x G j C C j ^ F C x x G x ,.j N B z.C.C.z.^ d F T l c l ( a.C.B j j j Z j j 2.a.R.K.a.k f k B s.L.K.Y.k ",
"B k.K.K.z.( j Q j Q x x G x C j C Q | j x ] l G t j ^ A.K.A.j.1.j Z ( j l c T A.z.k f 2.x x j ( j C.K.A.R.B k k B s.E.z.z.k ",
"k.K.A.=.j j C j x G j l &.G Q x Q j x x | l x :.G Z j ^ j Y =.j j j G x c c j Z Y j j h Z A.m.Z Z k k C.z.p.K.k d p.P.K.K.V ",
"s.E.z.j t ( ( t | ] c $.C j j x | l ] ] 6.l u l h 2.j j j N j j j Q x x x G Z y j 2.| x | H.C.j B k Y Y.k.E.x.g =.L.z.z.s.g ",
"K.V k z.k.C.N.j l , > x h G l y c l l # * 3 : : , h j ( x Z Z Z G G x G G x Z j x y j ] j j 2.a.s.E.t.g =.k.L.p.z.L.d.P.P.k.",
"k.d B L.C.C.U.:.] > # l h q.$. .7.c l 2 * < * 2 , u l | j x x x C j j C G G Z ( | l l +.l x j E.k.~.x.g -.u.L.x.z.d.K.k.f./.",
"V z.L.k.s.( l u c : . , : r u c r : 2 2 * & 2 r c @.l | G x j j x x G G x x j t j ] l 7 > G j ^.s.d.L.x.k.P.k.L.k.L.A.Y c b.",
"d R.K.A.R.f G  .c , + 3 > c l e.n : : & : : 4 v n @.u G j G G G x $.] ] x x G G  .7.l * X  .x h.K.E.k.z.k.x.Y.Y.a.^.k.f T b.",
"k k.A.*.f G x  .l + 2 >   3 > l n : < & 4 v n m c c l l C C x x C C C l x | x | l > 2 * : n x j Y K.K.Y.K.k k k k j.C.Y j c ",
"j K.A.;.j Z l c u , 2 : * : > l m : & 2 : v 4.a m c x l G x x x $.x ] l c n u c l # : q   @.l c l G.I.b.Y.c c f *.l.m.2.h Y ",
"e ( ( j G x G ] :.c l : + : : c n n n : < 1 * : : # > t | G &.&.j = # * 2 + 2 n 6.: O : * n @., + w + X , h c c x ( F F f c ",
"j j j y 2.C j x x l c , * 2 q n m 6.b : * * 2 : : , 6 l G y x x j 6 3 : 3 * 2 c p 1 : * < n n   * 1 + 2 > z j G G t j Z G h ",
"l c ( x x x G Q ] u 8.c n l p a m + : < & 1 * * : l l ] j i x i G x a & * < * 2 2 v n < & : 4 & : : : m l c x x C ( ( C x l ",
"u l x c j j y C G u l c m a 6.n c : : : : : 4 * , x x G C | | i | x l 2 : : & : : v 4.< ; : O < 2 : > c c c  .x j C C C l ] ",
"G j j 2.Z j C j &.| c l c w # 2 : l m a m l n l x x l G C x C C G l c 4.a 4 : : & v b v v 4 < : * x 6.x c ] x G C j C x c x ",
"x c h G j Z 2.t j l l m c . + : + ;.c m c l :.j u G C G Q j C C Q y ] +.a 1 < + : b 4.w.v & < < . a ' C G G j C Q D Q | x j ",
"h T T c ( m.h.c Y h ;.b.J.: : : , f l Y.g.A.g. .x j ( t j &.C x Z j G x @.n m < ; 1 & & < < < v 6.] l | x x C x D N j x c x ",
" .c h T Y m.L.f Y c k Q.b.= # = , k f Y.A.A.m.*.( Z Q j G C C j Q | G u 7.l m 1 : ; & 4 & : 4 a l ] l $.x y j C C C x j l c ",
"c h c Y f f t A.L.f k k.R.k.R.k e K.R.E.A.Y j t j j 2.j C &.&.| G y x n @.: < o : 1 < < : : o 3 : # * x @.G | x j Z | C l l ",
"f T c T *.k *.(.k.g =.p.k.E.k.3.k k.k.p.k.f k 3.( t 2.j j | j x | C $.l l 2 2 : * < * + : < : 4 > # 6 c l l x j j j G G c x ",
"c k.Y.K.i.k f k.d.d.L.x.x.x.k.x.s.P.P.d *.L.k.C.m.N j &.C j j j x &.l # > : + : 1 v 9.n l 3 + * * a x x x G x Z Q j j C c l ",
"c p.K.E.k.*.=.s.L.L.x.k.P.k.z.k.x.L.L.d f x.R.p.T.` j ( x C Q G G C l # : # : > : l c c l > , : , l x ] x ] Q C Q Z C C c l ",
"c k Y p.R.d.z.P.d.s.d.z.z.z.E.d.E.d.z.x.P.z.E.d =.t y Q x Q C j G | c = 7 u 6.n l c c l c l c  .n ] j G j j Q y t N ( C j l ",
"d k =.K.k.z.s.z.L.L.z.L.z.K.K.p.s.P.x.d.L.p.s.B d B 2.j j G C x i | x @ > l u u n $.] ] ] x l c l G j | j j j Q F F N j T l ",
"c f k Y B z.L.z.K.B 0 z.C.f j L.L.d.z.z.k.B ^ z.L.C.h.Z ( j C | G i ,.l C x q.l $.x x G j x ] x l $.x G j j ( a.C.1.t j ;.j ",
"c d c T k z.L.z.K.B f L.K.k k C.z.z.z.K.z.B k s.T.m.i.2.j Z x x x j j G G x x x G x x Q x x G j Z G j Z ;.j Y m.h.( y Y c u ",
":.:.;.c c m.m.*.Y f f *.j k Y f B K.K.B j k ^ C.T.2.k Z j Z G x c c c x x x G x x C j x x j j x c C.E.b.g.j k R.E.Z j A.U.8.",
"s z h h :.G.b.f k Y k k f T T k k j.z.j f T Y s.g.c h j T j c G c l  .c T x ( x C G c c c c  .T j b.K.Y.g.c k p.p.Y ;.A.c.l ",
"z M M z s c  .h Y j h T c h h Y c T k c *.f h *.T k T ;.j j h l c c l l l c j Z j j x c c l c j h c k Y.K.K.Y.K.Y.b.b.W.c.m "
};
