/* XPM */
static char *d04176f5c065437ba7c875aa334fca23ecPcU7cYSW6pYWIh[] = {
/* columns rows colors chars-per-pixel */
"64 64 8 1 ",
"  c #FF00FF",
". c black",
"X c gray8",
"o c #6E001E",
"O c #432F00",
"+ c #464646",
"@ c #B6946D",
"# c white",
/* pixels */
"                                                                ",
"                                                                ",
"                                                                ",
"                                                                ",
"                            ........                            ",
"                        ................                        ",
"                    ........................                    ",
"                 ..............................                 ",
"               ..................................               ",
"              ....................................              ",
"             ......................................             ",
"             ......................................             ",
"             ......................................             ",
"             .............@@@@@@@XX................             ",
"              ..........@@@@@@@@@@@@.XX@..........              ",
"              ........@@@@@@@@@@@@@@@.XX@X........              ",
"              .......@@@@@@@@@@@@@@@@@@X@@X.......              ",
"              .......@@@@@@@@@@@@@@@@@@@X@@.......              ",
"               .....@@@@@@@@@@@@@@@@@@@@@@@X.....               ",
"               .....@@@@@@@@@@@@@@@@@@@@@@@X.....               ",
"               .....@@@@@@@@@@@@@@@@@@@@@@@@.....               ",
"               .....@@@@@@@@@@@@@@@@@@@@@@@@.....               ",
"                ....@@XXXX@@@@@@@@@@@@XXXX@@....                ",
"                ....@.X@@XXX@@@@@@@@XXX@@X.@....                ",
"                ....@X@@@@@XX@@@@@@XX@@@@@X@....                ",
"               OO...@@@@@@@@@X@@@@X@@@@@@@@@...OO               ",
"              O@@..X@@@@@....@X@@X@....@@@@@...@@O              ",
"              O@O..@@@@..#XX#.@@@@.#XX#..@@@+..O@O              ",
"              O@O@.@@@.@.#..#@@@@@@#..#.@.@@@X@O@O              ",
"              O@O@O@@@@@@@@@@@@@@@@@@@@@@@@@@X@O@O              ",
"               O@O@@@@@@@@@@@@@X@@@@@@@@@@@@@@O@O               ",
"                OO@@@@@@@@@@@@@X@@@@@@@@@@@@@@OO                ",
"                 O@@@@@@@@@@@@@X@@@@@@@@@@@@@@O                 ",
"                 O@@@@@@@@@@@@@@@@@@@@@@@@@@@@O                 ",
"                  O@@@@@@@@@@X@@@@X@@@@@@@@@@O                  ",
"                  O@@@@@@@@@X+X@@X+X@@@@@@@@@O                  ",
"                  O@@@@@@@@@@@@@@@@@@@@@@@@@@O                  ",
"                   O@@@@@@@@@@@@@@@@@@@@@@@@O                   ",
"                   O@@@@@@@@@@o@@o@@@@@@@@@@O                   ",
"                   O@@@@@@@.@oooooo@.@@@@@@@O                   ",
"                    O@@@@@@.o.oooo.o.@@@@@@O                    ",
"                    O@@@@@@..o....o..@@@@@@O                    ",
"                     O@@@@@.@@oooo@@.@@@@@O                     ",
"                     O@@@@@@@@@@@@@@@@@@@@O                     ",
"                      OO@@@@@@@@@@@@@@@@OO                      ",
"                        OO@@@@@@@@@@@@OO                        ",
"                          OO@@@@@@@@OO                          ",
"                            OO@@@@OO                            ",
"                              OOOO                              ",
"                               @@                               ",
"                               @@                               ",
"                               @@                               ",
"                             @@@@@@                             ",
"                            @@@@@@@@                            ",
"                           @@@@@@@@@@                           ",
"                          @@@@@@@@@@@@                          ",
"                          @@@@@@@@@@@@                          ",
"                          @@ @@@@@@ @@                          ",
"                          @@ @@@@@@ @@                          ",
"                          @@ @@@@@@ @@                          ",
"                          @  ######  @                          ",
"                             @####@                             ",
"                             @@  @@                             ",
"                             @@  @@                             "
};
