/* XPM */
static char *_7961469cd704f73ca554f42c2ff3c47umKcqZ0o1x1VZWyS[] = {
/* columns rows colors chars-per-pixel */
"64 64 228 2 ",
"   c #004E1B",
".  c #004B15",
"X  c #015425",
"o  c #01562A",
"O  c #035B2C",
"+  c #075B28",
"@  c #0A5C2D",
"#  c #04622E",
"$  c #016D2D",
"%  c #02712E",
"&  c #0B752C",
"*  c #0E782E",
"=  c #016C31",
"-  c #0D6237",
";  c #176535",
":  c #027432",
">  c #017936",
",  c #017C39",
"<  c #007739",
"1  c #1A7934",
"2  c #2B6634",
"3  c #376A38",
"4  c #377B3D",
"5  c #476D3A",
"6  c #4A783E",
"7  c #6E773E",
"8  c #1F6E4A",
"9  c #2B7755",
"0  c #5E7341",
"q  c #4E7642",
"w  c #6D7B45",
"e  c #807E4A",
"r  c #02803B",
"t  c #0A8338",
"y  c #188735",
"u  c #199036",
"i  c #38982D",
"p  c #248B32",
"a  c #249234",
"s  c #2E9D35",
"d  c #2E9F38",
"f  c #299731",
"g  c #329E34",
"h  c #349C33",
"j  c #348A2E",
"k  c #38A32E",
"l  c #34A135",
"z  c #3CA332",
"x  c #32A338",
"c  c #2DA136",
"v  c #4DAA1D",
"b  c #51AB1F",
"n  c #7CBA1E",
"m  c #509F30",
"M  c #4EAE24",
"N  c #44A42E",
"B  c #4BA62D",
"V  c #4BA92E",
"C  c #46A82F",
"Z  c #53AD24",
"A  c #56AE2D",
"S  c #55AD2B",
"D  c #59AF2A",
"F  c #58AF2C",
"G  c #59AF2C",
"H  c #4EB029",
"J  c #53B12A",
"K  c #5AB02B",
"L  c #5AB12C",
"P  c #5BB12C",
"I  c #54B126",
"U  c #42A631",
"Y  c #44A831",
"T  c #4AAA30",
"R  c #5CB232",
"E  c #5DA435",
"W  c #67B428",
"Q  c #77B823",
"!  c #66A934",
"~  c #78A83A",
"^  c #64AC31",
"/  c #669A37",
"(  c #388240",
")  c #3F876D",
"_  c #518545",
"`  c #74844A",
"'  c #688B44",
"]  c #65B946",
"[  c #74B650",
"{  c #52937E",
"}  c #44886F",
"|  c #7CC469",
" . c #8BBF16",
".. c #8CBF1A",
"X. c #85BC1C",
"o. c #91BF1E",
"O. c #8E9D3C",
"+. c #84B925",
"@. c #98B727",
"#. c #89AA36",
"$. c #9DAB33",
"%. c #A9A73B",
"&. c #A1B031",
"*. c #8EC01B",
"=. c #88C218",
"-. c #91C11C",
";. c #98C41A",
":. c #8FC021",
">. c #92C223",
",. c #94C32A",
"<. c #99C62E",
"1. c #9AC634",
"2. c #9BC63A",
"3. c #9BC639",
"4. c #87844A",
"5. c #8B9A44",
"6. c #9E9D49",
"7. c #969C44",
"8. c #998C4F",
"9. c #BA8649",
"0. c #BE8B4B",
"q. c #B88346",
"w. c #A39B4A",
"e. c #AA9B48",
"r. c #A78C53",
"t. c #B58752",
"y. c #B68954",
"u. c #BB8C55",
"i. c #BC8E58",
"p. c #B88650",
"a. c #AC9253",
"s. c #A89D50",
"d. c #BE9256",
"f. c #BE9259",
"g. c #B89954",
"h. c #B5954B",
"j. c #8DA242",
"k. c #96A245",
"l. c #A8A244",
"z. c #AFA556",
"x. c #BF9C68",
"c. c #ADAC6E",
"v. c #8A9269",
"b. c #C18E4C",
"n. c #C3904F",
"m. c #C18E54",
"M. c #C48D59",
"N. c #CC8F5D",
"B. c #C19255",
"V. c #C2955A",
"C. c #CA935B",
"Z. c #C4985C",
"A. c #CE995C",
"S. c #CA9456",
"D. c #D2995D",
"F. c #D4965B",
"G. c #C29C68",
"H. c #D09E68",
"J. c #E09860",
"K. c #C8A26F",
"L. c #C5A577",
"P. c #9EC841",
"I. c #A1CA45",
"U. c #A3CC48",
"Y. c #86C776",
"T. c #5FA39C",
"R. c #67A59D",
"E. c #72AFAB",
"W. c #BAAB8A",
"Q. c #B3B291",
"!. c #84B9BA",
"~. c #BABCAB",
"^. c #91A894",
"/. c #C4AF8B",
"(. c #C5AC84",
"). c #C5B18C",
"_. c #CCB28B",
"`. c #C5B493",
"'. c #C3B69B",
"]. c #C5B99C",
"[. c #C9B797",
"{. c #C4BCA4",
"}. c #CABEA4",
"|. c #C2BEAB",
" X c #97D298",
".X c #93CE8E",
"XX c #BEC6BD",
"oX c #BEC1B3",
"OX c #A8D8B1",
"+X c #C5C1AE",
"@X c #C9C1A9",
"#X c #C4C3B4",
"$X c #C8C8B9",
"%X c #D7CCB8",
"&X c #D9D0BC",
"*X c #85BCC0",
"=X c #95C5CB",
"-X c #8FC1C6",
";X c #B2CCCF",
":X c #B5E2CB",
">X c #B3E4CD",
",X c #BCDCEB",
"<X c #ABD9EC",
"1X c #BBE1F6",
"2X c #BDE4FC",
"3X c #BDE9FF",
"4X c #B7E1FA",
"5X c #BFECE2",
"6X c #C4CAC3",
"7X c #CDDCDB",
"8X c #C5DCE4",
"9X c #C7DCE4",
"0X c #C6EBE9",
"qX c #C2E6FC",
"wX c #C5EAFE",
"eX c #CCECFD",
"rX c #CAEAF6",
"tX c #D1EEFD",
"yX c #D1EEF6",
"uX c #CCF2FF",
"iX c #C4F0FF",
"pX c #D3F3FF",
"aX c #DBF3FE",
"sX c #DAF8FF",
"dX c #E6F4FB",
"fX c #EAF6FD",
"gX c #EAFDFF",
"hX c #E4F9FF",
/* pixels */
", , $ $ $ : r S P P T s s z K P P z s g s Y K D S g g s z P S & $ r S A h s g D D P P V d x g S G P U s g L B $ % , , , : $ $ : ",
", , $ $ $ : t A D P V s s U K P P z s g s Y P G S g g s z D A * $ y P S h s h A D G P V s x g S P P U d g S S * : , , , : $ $ : ",
", , % $ $ : t A P P V g g U P G P z s g s T P P A g g s z K A * $ a P S h s l P G A K T s g g A P P U d h D A * $ r , , > $ $ : ",
", , : $ % : , B P D V s s z D A D z s g s T P P A g g s z K A * = f P S h s l P P D D V s g l A G D N s h G S & = r , , > $ % : ",
", , : $ % : , N K D V s s k D D D z s g s T P K A x g s z D S * $ p P S h s l P P G D V s g g A D D U s h P N $ : , , , > $ $ : ",
", , : $ % : , h P D T g s z K D K U d g s V P P A x g s z K B $ $ > N D x s l P K A K T s g l A A K Y s l P N $ % , , r > $ % > ",
", , : % % > , t S K V g s z D D P U s g s V P P S x x s z P i $ & : p P x s l P P G P T s g l A A K N s z K B % : , r , : % % : ",
", , : % $ > , , N P V s s z P A K N s g s V P G S g g s z D * $ : : i P g s l P P P K T s g l D G G Y s z D B $ : , , , : $ $ : ",
", , : $ $ : , y P P V s s U P A K Y s g s C D G S g s s U S $ $ $ : N P g g l D D D K T s s l A P P Y s z P N $ : > , , : $ $ : ",
", , : $ $ : < f P G V s s z D A K N s g s T K D S g g s z S * $ % > C P g s h S D D D V s s l G D D Y s z W i # : , > > : $ $ : ",
", , : $ $ : , i P P V s s z D D K N s g s C P D A l g s z D & $ % , C D g s h D P A K V s s l D A D N s z D * $ : , , , > $ $ : ",
", , : $ $ : , i P P V s d z P A D V s g s T K P A g g s k D * $ % , f D g g h A G D P V s g z P P P Y s U G * $ : , , , > $ $ : ",
"> , : $ $ : , h P P V s x z K D K T s g s V P P L g s s U D & $ % > , i h s h A D D P V s g z P P P N s U P * $ : , , r > $ $ : ",
"> > : % % : , u P G V s g z D D P T s s s T P P A g g s U i $ $ : , , a h s l L P D P T g g z K P D N s U P * $ : r , r : $ % > ",
"> , : $ % : , r V W V s s z D D P V s g s T P G D x g g y > $ $ % , , a l s g A G D P T s s z D A K N s Y S $ $ : , , , : $ $ : ",
", , : $ $ : , , t U V s s z D D P V s g s T P G A g g s > > $ $ % , , y l d g S D D P T g s z P D D N s T f $ % : , > , : $ $ : ",
"> , : $ $ : , , < a L s g z D P P V s g s C K P A g g s , > $ $ % > , , a s g A D A P T s x z K D D T d a : $ $ : , , , : $ $ > ",
", , : $ $ : , > , h S s s l P G P V s g s C D D A x l u , : $ % % > , , , t g A D A D C s s z K G P T u , : $ $ : , > , : $ $ > ",
", , : $ $ : > > < f S s s l P D P V g g s T D D A g a , , : $ % % > , , , r s S D A K N s s z K J P T t , > $ % : , > , : $ $ > ",
", , : $ $ : _ , , t T x x l P P D S g g s N D D S @ : r t > $ : % ( 1 > r : p P S D D N s g U P ~ E y , , > $ % : > > , : $ % > ",
"# O $ $ $ ' C.; = O 1 p y l P G D S g x s Y P W j o # = w ` $ $ 1 d.a.4 = O # N ! ^ I N f s k ~ F.0 o , , > % % : , > > : $ $ > ",
"o o q _ ` C.V.2 o o o o + l P G P V g c h 6.E j + o o X 3 D.` 6 a.V.D.w X O O o 4.g.^ ! 8.' E s.C.2 o = r : $ % : > _ _ 1 + o # ",
"O o w J.C.V.V.2 o o o o o p L J / 5.f g 5.F.5 X O o o o ; f.D.D.V.V.V.3 o X X o 5 D.f.V.C.C.S.C.8.o o o # 4.6 $ : _ B.D.r.o o o ",
"O o w A.f.V.A.3 X O o O o 3 z.j 3 C.5.a.C.A.6 o + O O o ; f.B.d.d.V.f.X 9 } ) - o a.C.V.V.d.V.V.2 o @ o X e D.4.8.C.V.V.r.o X o ",
"O o ` D.d.d.C.q 8   O o o 3 J.0 2 C.S.S.i.A.6 o O X o O @ d.u.u.d.A.4.  -XeXeXE.o 2 f.d.d.d.D.7 X - . ; 9 . r.F.C.V.d.B.r.o E.R.",
"  R.W.n.d.y.0.~.<X8   - @ + V.8.3 C.d.d.t.C.5   . { } . 9 f.u.u.B.S.v.E.wX4X2XqX<X-Xx.p.d.V.A.` T.=X} =X4XR.^.S.d.V.f.0.x.<XqXqX",
"{ wX`.b.V.t.b.6XwX4X!.<X!.8 a.B.4.B.V.V.y.S.^.9 { wX1X*X,XZ.u.d.V.b.6XiX4X2X2X4X2XqXG.u.V.V.b.|.wXqXiXqX2XeXwXQ.0.f.V.m.L.qX4X4X",
"qX3XW.b.V.i.b.XX3X4XwXqXqX3XW.n.V.B.V.V.f.b.6XwXwXqX2XwX1XG.B.V.i.9.XX3X1X2X2X2X2X,XG.V.B.V.b.~.3X4X4X2X2X4X3X#X9.f.V.B.K.1X2X2X",
"1X3X`.b.Z.Z.b.;X3X1X4X4X1X3XoXb.V.u.t.V.V.b.XX3X1XqX2X2X1Xx.B.V.i.9.XX3X2X2X2X2XqX,XZ.B.B.u.0.|.3X1X2X2X2X1X3X|.9.i.B.B.K.qX2XqX",
"qXqX/.b.Z.V.b.;X3X1X2X2X2X2X,XZ.B.V.y.B.Z.b.XX3X1X2XqX2XqXG.B.V.d.9.XXqX2XqX2XqXqX,XZ.m.B.y.b.|.3X1X2X2X2XqX3X#Xb.V.B.B.G.1XqXqX",
"2XwX).S.Z.V.0.%XaXeXqXqXqXqXwX'.b.V.u.V.V.n.$X3XqXqX2XeXdXK.B.V.V.b.%XsXtXqXqXqXqX8XV.B.V.y.b.+XwXqXqXqXqXqXwX~.b.Z.B.m.x.1XqXqX",
"qXhX_.B.V.V.b.&XgXfXaXqXqXqXqXqXL.b.V.V.i.0.#XwXqXqXeXfXfXK.B.V.V.0.%XgXfXpX2XqXqX8XZ.B.B.i.b.#XwXqXqXqX2XqXuX#Xb.V.V.B.K.eXqXqX",
"eXgX_.0.u.V.b.%XgXdXaXqXqXqXqXwX{.b.V.V.y.0.#XwXqXqXeXdXfXL.u.i.V.b.%XgXdXtXqXqXqX8XV.B.B.Z.b.#XwXqXqXwXtXdXgX%X0.V.i.u.K.dXeXqX",
"eXhX_.0.y.Z.0.$XpXeXqXqXwXqXqXwX'.b.V.V.i.0.+XwXqXwXqXeXtXL.0.f.Z.b.$XpXrXqXqXqXwX8XV.B.B.V.b.#XwXqXqXaXfXfXgX%X0.Z.y.u.K.fXtXqX",
"qXeX).b.y.V.b.+XwXqXwXwXwXqXqXwX'.b.V.V.V.b.{.wXqXwXwXwXwXL.0.d.Z.b.|.wXqXwXwXwXwX8XV.y.V.V.b.$XwXqXqXaXfXfXgX%X0.V.u.u.K.fXtXqX",
"qXwX).0.d.V.b.{.wXqXwXwXwXwXqXwX'.b.V.B.V.b.].wXqXwXwXwXeXL.b.V.V.b.{.wXwXwXqXwXwX9XV.y.B.V.n.6XwXqXwXwXeXtXpX$X0.V.B.B.G.tXwXwX",
"qXwX).b.Z.d.b.{.iXwXwXeXwXwXqXwX'.b.i.u.V.b.'.wXqXwXwXwXwXL.b.V.V.b.{.wXqXwXwXeXwX8XV.V.V.V.n.$XwXqXwXwXwXqXwX#X9.i.V.B.G.wXwXwX",
"qXwX`.n.V.y.9.}.iXqXeXeXeXwXeXiX].n.i.u.V.0.'.iXqXwXeXwXeX(.b.V.i.0.[.wXqXwXeXeXwX8XV.V.V.V.n.$XiXqXwXeXeXeXiX+Xq.y.V.B.K.eXwXeX",
"wXiX`.b.V.i.q.].iXeXeXeXeXeXeXiX].b.i.V.V.b.].iXeXeXeXeXeX(.B.V.i.q.`.iXqXeXeXeXeX9XV.V.V.V.b.$XiXqXeXeXeXeXiX+X0.V.u.0.L.eXeXeX",
"eXuX`.b.Z.i.q.`.uXeXeXeXeXeXeXuX{.n.V.V.V.0.].iXeXeXeXeXiX/.B.V.f.9.`.iXeXeXeXeXeX9XB.V.Z.i.b.$XiXeXeXeXeXeXiX+Xb.V.i.9.L.eXeXeX",
"eXuX`.b.V.V.b.`.uXeXeXeXeXeXeXuX{.n.V.B.y.0.[.uXeXeXeXeXuX).b.d.V.b.`.uXeXeXeXeXeX9XB.V.Z.i.0.$XuXeXeXeXeXeXuX|.b.V.d.0.L.eXeXeX",
"eXuX`.b.V.V.b.`.uXeXeXeXeXeXeXpX}.b.V.V.i.0.`.uXeXeXeXeXuX).0.y.Z.b.`.uXeXeXeXeXuX9XB.V.V.f.0.$XuXeXeXeXeXeXuX|.b.V.V.b.L.eXeXeX",
"eXuX`.b.V.V.b.`.uXeXeXeXeXeXeXuX@Xb.V.V.i.0.`.uXeXeXeXeXuX).0.i.V.0./.uXeXeXeXeXuX7XV.V.V.V.b.$XuXeXeXeXeXeXuX@Xb.V.V.b.L.uXeXeX",
"eXuX`.b.i.V.b.).pXeXtXeXeXeXtXpX@X0.V.B.V.b.`.pXeXeXeXeXpX`.b.V.V.n.).pXeXtXeXeXpX7XB.V.V.V.0.#XuXtXtXtXtXeXpX}.b.V.V.b.(.uXeXeX",
"eXpX`.b.i.f.b./.uXeXtXtXeXeXtXpX}.0.V.V.V.n.`.pXtXeXtXtXpX`.b.V.V.b.).uXtXtXtXtXpX7Xm.B.B.V.b.#XuXtXtXtXeXeXpX}.b.Z.V.b.L.pXtXtX",
"tXpX`.b.f.f.b./.pXtXtXtXtXtXtXpX}.9.d.B.Z.b.[.pXtXpXtXtXpX`.b.V.V.b.).pXtXtXtXtXpX7Xm.B.B.V.b.@XpXtXtXtXtXtXpX].b.V.V.b.(.pXtXtX",
"tXpX`.b.V.V.b.).pXtXeXtXtXtXtXsX}.q.i.V.V.b.].pXtXtXpXtXsX[.b.V.V.B.).pXpXtXpXtXpX7XB.y.d.V.0.$XsXpXaXaXeX0XsX}.b.V.V.n.(.pXpXpX",
"yXuX).b.V.u.0.(.pXaXaXpXaXaXtX0X].9.y.V.V.b.}.uXtXaX0XaX>Xc.p.d.Z.b.`.0X:XaX0XaX>X[ S.t.d.V.m.c.>XOX| :X[ [ 5Xc.S.y.f.C.s.5XOX] ",
"Y.| 7.C.V.y.M.7. XOX XrXY.OXOXv k.C.d.B.y.m.W.] Y..XG | M 7.M.i.B.m.z.] R  XP Y.] ! S.y.u.V.C.O.M D b Z Z G R O.C.t.d.C.w.] G b ",
"K I 6.C.V.i.M.6.I K Z R v G G M j.C.B.B.y.M.7.M Z Z D b J k.M.d.u.M.w.I P b D Z Z ~ S.d.V.i.C.j.J G G A P G M 6.C.i.u.S.w.M D G ",
"G J 6.C.V.d.S.6.J P R Z G D G J 5.C.d.B.B.C.k.J G G D R J 6.C.V.u.M.l.J G G G G J ~ C.V.Z.y.C.#.M G G D G G S w.C.V.u.u.w.S G G ",
"G M 6.C.d.B.C.6.J P P P A G G J j.C.d.B.d.S.k.J D D D G S 6.C.V.d.M.w.J D D A G Z ~ C.V.Z.f.C.j.J G G G P G S w.m.V.u.M.w.S G G ",
"D S w.d.V.g.g.6.J P A P W A G J 7.N.M.V.m.C.k.J G D D D J w.C.d.V.C.6.J D D D D H ~ C.V.Z.V.C.j.J G A P G S D e.M.V.V.C.w.J D D ",
"n P #...e.@.-.#.Q ..P Q ;.Q W =.$.h.&.d.%.%.k.=.Q +.*.W H k.C.V.l.B.l.n W W ..n K #.V.V.h.m.C.#.J P W A D W L a.d.h.V.C.w.S G A ",
"-.X.X.*...-.*.=.*...X...-.-.-.-.-.-.=.@.*.=...*.-.-.-.+.Q *.$.%.=.@.@.*.....*.....-.@.$...%.%.*.W Q -.W Q ;.Q e.@.=.%.V.@.W A W ",
"..*.-.*.*.o.*.......:.,.-.-.-.*.*.-...*.....=.*.*.-.*.-.-...=.*.-.=.......*.*.*.*...=.=.=.=. .-.-.-.-.-.-.*...o.=.=.o.@.*.*.n -.",
":.1. ...>.P.......*.,.2.*.-.*.*.1.,...*.....*.-.*...-.-.-.*.>.-.-.......>.*...-.*.,.>...>.,...-.-.*.*.-.*.*.*.....*.*.*...-.-.-.",
">.2.....*.,.....,.*.*.:...>.,. .3.,. .*.>.,...-.*.>.>.*.-.-.U.>.*.*...>.I...*.*. .3.,. .,.I...........-.......,.>.*...-.>.-.*.*.",
"..>.-.*.*.....*.I.-.......,.I. .>.-.*. .<.2. .-.*.U.,...*.*.1.*.....*...,.*.*.*.*.*...*.-.>.*.*.*.*.*.*.-.-. .3.,.*.-.-.I.>.*...",
"*.*.*...*.>.*.*.>.*.*.>.....>.*.*.-.*.*.>.>...-.-.1.>...*.*.*.*...>.*.*.*.*...:.*.*.*.*.*...*.*.:...*.*.-.-.*.-.*.*.*.-.,.-...-.",
"*.*.3.:.*.I.-.....*.>.P.....*.-...>.1...*...-.<.-.-.-.-.>.*.*.*...I.>...-.*...P.>.*.*.:.*.*...>.P...-.-.,.-.*.*.*...<.-.*.>.1.*.",
"..*.2.*.*.,.-.*...*.>.1.....-.-.*.,.1.*.*.-.-.U.-.-...,.2.=.*.*...1.-...*.-...1.>.*.*.I.>...-.:.3.*.-.*.I.>.*.*...>.I.*.-.>.I...",
"..*.-.*.....-.-.-.-.-.*.*.-.-.*.*.-.-.-.-.-.*.1.*.*...:.,.*...*.*.*.-.*...-.*.....-.-.,.>.-.-.*.*.-.*...,.-.-.-.-.-.>...*...:...",
"*.*.......-.-.*.*.-.-.*...-.-.-.-.-.-.*.-.-.*.....*.*.....*.....*.-.-.*.*.*.....*.-.-...-.-.*...*.-.*.-.*.-.*.*.-.......*.*....."
};
