/* XPM */
static char *xpm[] = {
"16 16 2 1",
"0 c #202020",
"1 c #606060",
"1111111111111111",
"1010101010101011",
"1111111111111111",
"1010101010101011",
"1111111111111111",
"1010101010101011",
"1111111111111111",
"1010101010101011",
"1111111111111111",
"1010101010101011",
"1111111111111111",
"1010101010101011",
"1111111111111111",
"1010101010101011",
"1111111111111111",
"1111111111111111"};
