/* XPM */
static char *_c17d2eb076549afc94652c09e559d4ar32ImT1GOgHMVNFR[] = {
/* columns rows colors chars-per-pixel */
"64 64 133 2 ",
"   c #0E2F52",
".  c #113255",
"X  c #123356",
"o  c #153659",
"O  c #16375A",
"+  c #17385B",
"@  c #18395C",
"#  c #193A5D",
"$  c #1A3B5E",
"%  c #1B3C5F",
"&  c #1C3D60",
"*  c #1D3E61",
"=  c #1E3F62",
"-  c #1F4063",
";  c #204164",
":  c #214265",
">  c #224366",
",  c #234467",
"<  c #244568",
"1  c #254669",
"2  c #26476A",
"3  c #27486B",
"4  c #28496C",
"5  c #294A6D",
"6  c #2A4B6E",
"7  c #2B4C6F",
"8  c #2C4D70",
"9  c #2D4E71",
"0  c #2E4F72",
"q  c #2F5073",
"w  c #305174",
"e  c #315275",
"r  c #325376",
"t  c #335477",
"y  c #345578",
"u  c #355679",
"i  c #36577A",
"p  c #37587B",
"a  c #38597C",
"s  c #395A7D",
"d  c #3A5B7E",
"f  c #3B5C7F",
"g  c #3C5D80",
"h  c #3D5E81",
"j  c #3E5F82",
"k  c #3F6083",
"l  c #406184",
"z  c #416285",
"x  c #426386",
"c  c #436487",
"v  c #446588",
"b  c #456689",
"n  c #46678A",
"m  c #47688B",
"M  c #48698C",
"N  c #496A8D",
"B  c #4A6B8E",
"V  c #4B6C8F",
"C  c #4C6D90",
"Z  c #4D6E91",
"A  c #4E6F92",
"S  c #4F7093",
"D  c #507194",
"F  c #517295",
"G  c #527396",
"H  c #537497",
"J  c #547598",
"K  c #557699",
"L  c #56779A",
"P  c #57789B",
"I  c #58799C",
"U  c #597A9D",
"Y  c #5A7B9E",
"T  c #5B7C9F",
"R  c #5C7DA0",
"E  c #5D7EA1",
"W  c #5E7FA2",
"Q  c #5F80A3",
"!  c #6081A4",
"~  c #6182A5",
"^  c #6283A6",
"/  c #6384A7",
"(  c #6485A8",
")  c #6586A9",
"_  c #6687AA",
"`  c #6788AB",
"'  c #6889AC",
"]  c #698AAD",
"[  c #6A8BAE",
"{  c #6B8CAF",
"}  c #6C8DB0",
"|  c #6D8EB1",
" . c #6E8FB2",
".. c #6F90B3",
"X. c #7091B4",
"o. c #7192B5",
"O. c #7293B6",
"+. c #7394B7",
"@. c #7495B8",
"#. c #7596B9",
"$. c #7697BA",
"%. c #7798BB",
"&. c #7899BC",
"*. c #799ABD",
"=. c #7A9BBE",
"-. c #7B9CBF",
";. c #7C9DC0",
":. c #7D9EC1",
">. c #7E9FC2",
",. c #7FA0C3",
"<. c #80A1C4",
"1. c #81A2C5",
"2. c #82A3C6",
"3. c #83A4C7",
"4. c #84A5C8",
"5. c #85A6C9",
"6. c #86A7CA",
"7. c #87A8CB",
"8. c #88A9CC",
"9. c #89AACD",
"0. c #8AABCE",
"q. c #8BACCF",
"w. c #8CADD0",
"e. c #8DAED1",
"r. c #8EAFD2",
"t. c #8FB0D3",
"y. c #90B1D4",
"u. c #91B2D5",
"i. c #93B4D7",
"p. c #94B5D8",
"a. c #95B6D9",
"s. c #96B7DA",
"d. c #99BADD",
/* pixels */
"- 0 n r h s u t q s & ; h u s p k t r s 0 . u u r h f p r u p & ; s u u f s s t u u @ 7 h r z s h r u h < % u p u h z u 0 s p ; ",
"h } 2.o.} ( ~ Q ~ K 6 Y 6.%.o.o.H Y ~ E n f %.>.=.} E Q ~ ~ K u G =.>.+.} Q T P ( M 0 ` 2.o.+.} Y T ~ Y u n -.3.o.[ ( ~ ( ( S 0 ",
"E 6.` C m M C M n S r =.6.Y m n M M S M z C 6.o.M n k m M m M u { ,.~ n M V C C C h z 0.>.Y n z M V G M u Y 6.` M z z n n M z 0 ",
"C +.n z n M M k f Y s } E k z m M z z z z C o.m n V M S M M C h ( } m u M M z z n n M %.C h z M n h n n h Q o.s V M C M n V M s ",
"s ~ n G C n V C V H 6 T K V S S C M S C h p ~ V M M c m M M n < G E C V K M M G S k p ~ c M C G C V C m r n ( n m n M m M S h & ",
"h G n C M z m c z u & C G M n n m M n h r < S S C C M C C n c 7 n M c M C n M M z 6 6 K C C z n M M n h 6 r G C M M C V m M h 6 ",
"; < r r r u h q r - @ < 7 t t u 7 t 3 ; 6 @ r 7 s 0 6 s t ; , & < 0 r u 0 r s < 0 ; - 0 r u r u 0 r 6 6 < < q 6 u 6 0 u 0 ; ; ; ",
"E P ~ u & r E ` [ ~ [ P P Q k % C [ ( Q } Y E S K r 6 K } ( ( / G ~ E k & s } [ ~ [ ( S K Y s @ E { ( / ~ Y E Y n 0 u ~ +.[ ~ ~ ",
"V M T S & o.0.o.P V C S C G m h t.,.} n C C C C Y s / p.} Q C K C V K C u 7.2.} G K m S C T p K p.o.[ G n K G S V u >.0.} P G S ",
"K h z n < / [ C C M C M n M m n @.K M c Y C V S M u Y @.C C n z C n V M h >.~ h z C M C m S s Y o.n z n V C z m C h ..~ c n C M ",
"n M C z , Q ~ h n n z c m M z u } G n z V s h n M s K / z n M n z h m n p [ K n h n n n M M u n } C n M V c f V M s ( K k c C n ",
"c H C u & C Y m M G C G G m s 7 Y S C M G M K V m 0 z T M n S H H K S k 0 C C G C G G C S z r u G C M m M C M C f < C P G M G V ",
"z p ; ; & 6 r h p n s s s 3 < , u r u h c s n 0 0 @ < h f u h u u s 0 ; ; u r p h f p s u < ; 3 h h h h k z h r 0 O 0 u h h z p ",
"6 M n m M k h n n h % r C n n z n z c n r O k n n c c k z z n - ; z n h c m z n n 0 % s V M c z h h h h ; % s k V z m s z n z & ",
"p 2.2.[ { / Q Y / K t E q.=...[ E Q ~ E m h >.0.{ } ( Y E Y E u ~ 0.6.} [ Q Y ~ ~ M u +.2.-.} ( E T / ~ z G 0.0.` ( [ Y E Y G 6 ",
"Y 3.~ z V z z n k C k { 2.G z n n M z z n K 2.~ C n z z C z G p ( =.Y s n m z n n n m 6.{ C h n M z c n s ~ 6.C M z z z C c M u ",
"M } V c M C m V M C u E Y V C M S V m H h n } M z K M m M C G t K ( m h C M C M n C f ..m C n M M m n K r G [ z C n G M n M K 6 ",
"n ~ C M M c m C C n q T Y h h z c M n C s h ~ V C n s n C z c u Y E n n C n M n n f 0 ( C M z M n M n S r M ~ c S h h n G n z 0 ",
"r f z M M m S n s r & z C n G G C G z s < , m n M S G K C h u % s k k C M n C M z r ; m m M M M G C k u & r V n V G K M G k 0 & ",
"0 0 s 0 % < f 7 0 t ; 3 0 t r & & r r u 0 , 0 0 0 & & 6 7 q u 6 6 r s s & < u u 6 < - ; 0 p t ; < 0 0 r 6 0 r 0 7 & 3 ; 0 0 r 6 ",
"K Y ( c & n @.} ( ..[ ~ ~ E C 6 [ @.} } ../ Q ~ [ r s ..>.{ ( ..Y Y Y V 0 Y o.[ o.+.o.Q E H h < =.o.} [ { / E E ~ < S -.-.` [ ` ",
"C V G z 6 ..q.o.G m M M K C n s e.=.Y M M n n C G u E 0.@.H z n S S C M k ,.2.[ n z m M H S n G i.} Y n M n n C H 7 o.e.[ V C n ",
"M n z z < } ( k H n n h C m M n ..P M M C C n n k f ( ` n z M M m M n m h +.Y h K V M n n m f K } n M n G M M C M f +.E u f G G ",
"n V V C @ Y K V z n G z C V c q [ V z n M C M M S t G T M C M n M M n n u ( G m k M C n n G u n } h M n C n n M V u E K C S n z ",
"C M c u 6 S G n V n Y C n C h 0 S Y C n S H V C c r h H H m M G m G n u u M Y z M C H M M n u p K G V G C V H n s u n G V n m M ",
"r t < &   ; r f r p r 0 r 3 @ @ 0 r 0 t h r u 0 < & ; r u p u r u s 3 & @ & r p r t 0 u q < @ & t 7 0 s t r f 7 - % < u p s s u ",
"& S H ~ K C S G C M & r E Y H E M C C M f & S G E K G M M C z 3 0 C K Y T C V C S h @ n H Y Y Y C M C C 6 6 G H E G C C M M f < ",
"m e.=.} ~ E E G K K r { y.+./ Y P Y T P C s e.7.( / E K K ~ K s ~ 6.=.~ ( Q Y G Y C u 2.6.+.~ H Y K Q Y p S 0.7.` Q Y K K Y C q ",
"G 7.P z h c m c c M p =.o.M M f n z z n C m 6.Y n z c n n C M u } -.K p k n n c z m z 6.` n k k n z n n h ~ ,.K z z z z m G M r ",
"M ( c n G C n C S M 0 / G z G C C M M n z z [ h V m M V m n z t Y Y z z S M M V V z s ( C k V K M V V n s K ( u V M C M M C c 0 ",
"S T n M C C z G M M < K H C n h M C G m t s ~ Y M m V C M C n u Y K M M V n V M C u p K G C M h n S S n u n ~ H V M C C M M h 7 ",
"< h z z z G h n 6 h O u k n h G n h h p - , s h n n m z f k u @ 3 h n n z c V s p % 6 s s n V c z z p r < 6 h h n k z n k s 0 @ ",
"f 0 h 0 & % h s s u s u r h u + 6 h q u f 0 p f s 6 @ u h r k s s u s s < < h u u h u q p s 6 @ 6 c u t u r h t s + ; h p u s u ",
"K ~ / z & K 7.,.o.[ ( ~ E ~ H r +.6.=...} / T K Y f M ,.0...[ / K / / c r ( 0.-.o.[ / E ( E n h 2.3.@.o.{ Q E E S t ~ 6.>.} [ ` ",
"n S M G < [ =.~ z n M M n M n u 0.} G h n C n m K u Y ,.( M n C M C G m z ,.+.T n h M m M m s C 0.~ m c M M z M G u @.@.Q C M n ",
"C c s V < ~ / n M M V M M C M z =.G n z C S k C C u Q [ z h c M C z z z h %.G k C c C M M C k Y o.m n n C G k n M q @.K k z M z ",
"m C C z ; G ( n C m k z C V f 0 Y n G M c n h V C 0 S E M K G c z S H k 0 [ S M S n n z m M u f T n G M k m c C n < [ G M V C M ",
"M c c u 3 h G z n C V C C z r r H S G n z H G n z , s S n m V n n M n s 0 S c C n C C C M f r u Y M C V n G G m z & n n M n c V ",
"u 6 & & @ ; 7 t r u 0 7 q , @ ; 6 6 0 u 0 0 t ; < & < t 0 0 h u p q ; & & < 6 f q u < u r O & ; 3 ; 0 s r 0 t % 7 @ < 3 u s r r ",
", Y } } Q [ T G E n 6 s ( +.` ( E K K E s ; G o.( } Q T Y Y K < 0 ~ o.` ~ Q E S T n @ M ..~ ..( E E Y H 7 6 ~ o.~ } ( G K E z ; ",
"G p.=.~ G M C G C S s ,.6.=.E M G m m K n M p.-.( G G n C C H s } p.o.P C V M G Y z s i.2.Q K G V G G M h [ y.@.H K G C C m K r ",
"V @.n n M H M n m M u } ~ M n C m M M M s z =.m n k C C K m n u E } m k G K V n n n z =.K n M M M C C m f K { n M n z M G n V q ",
"G o.k z n M k M C m r ( Y n h M n M M M z n @.m M c z s n M m s E E c s M c z z n n k ` C m M k c n M n z K [ n m n z f m k n u ",
"s P M C H V M K M h 6 S K G C S K C n n h r Y V M K K m C G z 6 C G G C H M S K n s 0 P H S C C C C n h r z Y n n G E C G n h < ",
"; r h s z t s u q 0 & 7 0 s h h t u u q 3 O p p p s f h t 0 < - 0 q s h s s s u r 6 ; u u u s k u p r 7 & ; s u k t s u s 0 3 % ",
"n c C r & 3 C M M M k h z M u - u M G z n h C c V ; & M M n z M z z n s @ p z n n m z h z n t - n M M C z h V M M @ 6 z G z z n ",
"Y P E C & Y 7.2.{ ( ~ Q ( ( M 0 -.3.=.~ [ Q E G Q u V e.3.%.{ ~ Y Q Q P r @.2.6.( ( ~ T ~ ~ m r 0.>.} } ( Y E K G r [ e.6...[ E ",
"M z n G & +.>.G n z M z k z c M 2.[ V s G n c n n h ~ 3.V z M c n m c C t 6...C n c M n n h c E >.~ z z m c m z M h =.o.m h C k ",
"K n c M ; Y ~ n C z M M C S n s } V m n K n n C G r K ( C n m C G m m n 6 =.G k M M C M G z p V } u C V M m M C n f ( K M M M S ",
"s m S c - G E z V V M z n m s 0 ~ K G k n M C n S t C T m n c z h n C C r ~ C V n M n z V M z V ~ C K n M m m n n u Y S n z h n ",
"Y M p 6 & t m M s H K C V z 0 6 z h n h V S G h r & u m c G H V G G s 0 ; h z C c S G C n u < < z m z k G C V h r @ k n C C C H ",
"& 3 < 6 r 0 r t 0 u @ & 0 q < 0 s 0 u s r & 0 0 r , 6 q 0 u t & @ u < ; q 0 t r u 0 @ 6 7 0 6 0 u s 7 u 0 & u q t & t r u t 0 ; ",
"r @.2.} } ` ( K ( K 7 K =.>.` [ ~ K E T z 7 ~ >.=...[ ~ Y E K u c -.=.} +.E / Q / m r ( =.-.o.} Y T K E r t %.o.@.( } E E Y G q ",
"K 6.} G M m C m V M u @.2.[ C C G C S C m C 6.2.C G M M V S C u [ 6.[ V M c M M M z h 3.=.T M c M C C Y u E d.} C m G c M G S 6 ",
"P } c G G C M C M C s } Y z k C M m c z c C o.n c C z n M M V u ~ ( M z M G M n m M z =.P k n H m M z M s ~ @.s M c V n M V S 0 ",
"m [ z V h M M M M m 0 ( Y S M n z M C M f f [ m c G n M M n M u Y K m M n M z C m z 0 ( S n M n m C n M u G Q C V z M M M c M 0 ",
"h H S c G G M S C u q n G C M G C n V c q s S S C G M z C G h < K S n M C V G C n 0 r C M C n K S G C k r h C C C M M C H c z & ",
"O 6 h u s r u q 3 & % 3 u p r 7 q s u ; % ; 3 0 7 q s h r , ; < @ 6 s h 0 r u 0 7 ; ; r u k 0 r 0 0 0 < % < u s h 6 u u 0 & 6 ; ",
"G M C r @ 0 Y K Y Y K C C C h < z E E K ~ Y M C Y 3 < M Y E Q Y C K C z & c Y Y P Y C M M C 6 < P K E ~ P C V n M @ h K ~ E P C ",
"T H Y C < ~ e.=.E Q E K K Y V p 6.,.[ E E Y G Y T p K 6.-.( ~ K Y Y G G u =.6.o.Y / K G P Q k n e.@.( ~ Y H K P G q %.6.o./ Y E ",
"k n m G & } >.H c z z z n M n h 7.Q M m k h c n m s ( 6.Y h n h z z n C h >.o.C z M k z V G h K >.Y n z z z m M G u -.} M c h M ",
"C G z n . E ~ s G V M V C m z z [ n c H C C G M H u M T n n K M G M G n t ( K z C V n M m n u G ( C n C G S M z M 0 ( P m C m M ",
"n M z n 6 K T M n n n M M n h u ~ G n z z n M m z r M E M c C z c h C h s Y C M C n n S n n u c E V z c c m V M s q ~ K m z c S ",
"C z s 6 & 6 c M m C S M n h 0 ; s C V c S S z c s ; q M n M S n G h z < 3 z k C C c m C h h < < n z M C M M M z s & u f C S M V "
};
