/* XPM */
static char *f228aa144be24d26ec97f16c6fffd470aQiB65I538ogPliN[] = {
/* columns rows colors chars-per-pixel */
"64 64 221 2 ",
"   c #925F3A",
".  c #9A643A",
"X  c #99643C",
"o  c #BD692E",
"O  c #BA662B",
"+  c #AC6C3A",
"@  c #A5693A",
"#  c #AB703F",
"$  c #B3713C",
"%  c #BC753F",
"&  c #C06E32",
"*  c #C37335",
"=  c #C47639",
"-  c #C5793C",
";  c #C97C3C",
":  c #CA7A37",
">  c #956343",
",  c #9A6644",
"<  c #9C6A44",
"1  c #956648",
"2  c #9B664A",
"3  c #966A4B",
"4  c #9B6B4C",
"5  c #9A6E52",
"6  c #9C7255",
"7  c #9D775C",
"8  c #A36D43",
"9  c #A26C4B",
"0  c #AA6D40",
"q  c #AA7444",
"w  c #AA7548",
"e  c #B37541",
"r  c #B67B45",
"t  c #BB7843",
"y  c #B5764C",
"u  c #BA7C4D",
"i  c #B37B4C",
"p  c #A06D53",
"a  c #A57558",
"s  c #B57A54",
"d  c #BC7E52",
"f  c #B67C5A",
"g  c #9F7A60",
"h  c #A27D63",
"j  c #AB7D65",
"k  c #AD7F68",
"l  c #C47D44",
"z  c #C97E44",
"x  c #C37D4C",
"c  c #CD823E",
"v  c #D0833C",
"b  c #BC844C",
"n  c #B6824D",
"m  c #BE825D",
"M  c #BD8950",
"N  c #A5836A",
"B  c #A8846B",
"V  c #B3856F",
"C  c #BD8363",
"Z  c #AA8B74",
"A  c #AB8871",
"S  c #B38974",
"D  c #B78B77",
"F  c #AE9079",
"G  c #B7917D",
"H  c #CD8345",
"J  c #CE8947",
"K  c #CD8649",
"L  c #CE894A",
"P  c #C58248",
"I  c #D08646",
"U  c #D38B46",
"Y  c #D18649",
"T  c #D38C4B",
"R  c #D88B41",
"E  c #D6914E",
"W  c #DA944E",
"Q  c #DD9C4B",
"!  c #D99540",
"~  c #CA8551",
"^  c #CD8C51",
"/  c #C2865C",
"(  c #C48755",
")  c #D28E51",
"_  c #CF9657",
"`  c #CE905F",
"'  c #D59353",
"]  c #DA9551",
"[  c #DD9B54",
"{  c #D59559",
"}  c #D69A5B",
"|  c #DA9C5A",
" . c #D89759",
".. c #E19E55",
"X. c #E09F58",
"o. c #E39C4F",
"O. c #DFA057",
"+. c #DDA25B",
"@. c #E3A256",
"#. c #E4A45B",
"$. c #E8A75D",
"%. c #E6A85D",
"&. c #E9AA5D",
"*. c #E7A852",
"=. c #EBB35E",
"-. c #EAB055",
";. c #ECB056",
":. c #C78C65",
">. c #CF9666",
",. c #DA9E63",
"<. c #D39767",
"1. c #DDA463",
"2. c #DBA66C",
"3. c #DEA96B",
"4. c #DCA566",
"5. c #DBAD78",
"6. c #E2A663",
"7. c #E5AB64",
"8. c #EAAC61",
"9. c #E3AD6C",
"0. c #EAB266",
"q. c #ECB863",
"w. c #E6B46D",
"e. c #EBB56B",
"r. c #EDB96D",
"t. c #E5B56A",
"y. c #F4BC64",
"u. c #F1BC6E",
"i. c #E2AF72",
"p. c #E5B473",
"a. c #E9B673",
"s. c #E6B876",
"d. c #EBBB74",
"f. c #E5B57A",
"g. c #E6B87D",
"h. c #EBBC7B",
"j. c #F0BE72",
"k. c #F9C165",
"l. c #F7C068",
"z. c #EEC275",
"x. c #EDC17D",
"c. c #F3C475",
"v. c #F1C47B",
"b. c #F4C97C",
"n. c #FAC773",
"m. c #BA9E8A",
"M. c #B79A86",
"N. c #BAA28D",
"B. c #BDA896",
"V. c #C49C8B",
"C. c #C09685",
"Z. c #DDB484",
"A. c #DEB888",
"S. c #C3AD9B",
"D. c #CCAB9C",
"F. c #C5A293",
"G. c #C5B29F",
"H. c #E5BC84",
"J. c #E9BD83",
"K. c #E4BD8B",
"L. c #C6B4A3",
"P. c #C9B7A7",
"I. c #CCBBAB",
"U. c #D6B9AD",
"Y. c #D5B7AA",
"T. c #CEBEB1",
"R. c #D8BDB0",
"E. c #EDC384",
"W. c #EDC68C",
"Q. c #EDC98E",
"!. c #E6C189",
"~. c #F0C582",
"^. c #F3C986",
"/. c #FACE82",
"(. c #F0C788",
"). c #F1CA8B",
"_. c #F9D283",
"`. c #FCD18A",
"'. c #F6D18B",
"]. c #E6C595",
"[. c #ECCA95",
"{. c #EAC793",
"}. c #F2CD94",
"|. c #F2CF98",
" X c #ECD09F",
".X c #F3D097",
"XX c #F3D39B",
"oX c #FAD89C",
"OX c #FFE08F",
"+X c #CFC0AF",
"@X c #DBC5BA",
"#X c #D6C4B7",
"$X c #EFD6A7",
"%X c #F4DCA9",
"&X c #F4D8A3",
"*X c #F2DDB0",
"=X c #EACDA0",
"-X c #F7E3B1",
";X c #DACCC2",
":X c #DDD2C6",
">X c #DDD4CA",
",X c #E2CDC3",
"<X c #E6D4CC",
"1X c #E6DDD5",
"2X c #EADDD7",
"3X c #EBE2DB",
"4X c #E7E0D6",
"5X c #F1E3DE",
"6X c #EEEAE4",
"7X c #F2EBE5",
"8X c #F3EEE9",
"9X c #F2E6E1",
"0X c #F8F0ED",
"qX c #FAF6F3",
"wX c #FBF9F6",
"eX c #FDFDFC",
"rX c white",
"tX c #FFFFFE",
"yX c #FEFEFD",
"uX c #FFFFFF",
"iX c #F7F4F0",
/* pixels */
"rXrXrXrXrXrXrXrXrXrXrXrXrXrXrXrXrXrXrXrXrXrXrXeX4X+XN.Z h 5 4 3 4 4 6 N F S.@X6XrXrXrXrXrXrXrXrXrXrXrXrXrXrXrXrXrXrXrXrXrXrXrXrX",
"rXrXrXrXrXrXrXrXrXrXrXrXrXrXrXrXrXrXrXrXwX:XN.h 5 2 p s f m / / / / m s s 9 4 6 Z L.3XrXrXrXrXrXrXrXrXrXrXrXrXrXrXrXrXrXrXrXrXrX",
"rXrXrXrXrXrXrXrXrXrXrXrXrXrXrXrXrXrX7XS.7 1 9 f :.<. .[ ] ] W E E E T T T ) ^ ( y 9 4 A #XeXrXrXrXrXrXrXrXrXrXrXrXrXrXrXrXrXrXrX",
"rXrXrXrXrXrXrXrXrXrXrXrXrXrXrXrX8XN.3 2 f >.,.| [ [ [ ] ] W ] E E T T T T T T U T ) ~ y , g T.rXrXrXrXrXrXrXrXrXrXrXrXrXrXrXrXrX",
"rXrXrXrXrXrXrXrXrXrXrXrXeXrXrXL.3 2 :.,.#.#.@...[ [ [ [ ] ] ] ] E E E T T T T T J H I T ~ u , h :XrXrXrXrXrXrXrXrXrXrXrXrXrXrXrX",
"rXrXrXrXrXrXrXrXrXrXrXrXrX1XN , C ,.%.#.#.#.#.#...[ [ [ [ ] ] ] ] E E E T T T T T J H K H I L y 1 m.wXrXrXrXrXrXrXrXrXrXrXrXrXrX",
"rXrXrXrXrXrXrXrXrXrXrXrXI.1 a <.6.&.%.%.#.#.#.#.#...[ [ [ [ ] ] W ] E E E T T T T J J K H H H Y ~ 8 7 1XrXrXrXrXrXrXrXrXrXrXrXrX",
"rXrXrXrXrXrXrXrXrXrXrXm.> C 1.&.%.%.%.%.#.#.#.#.#.#.X.[ [ [ [ ] ] ] ] ' E E T T T T J J H H H H H Y y 3 #XrXrXrXrXrXrXrXrXrXrXrX",
"rXrXrXrXrXrXrXrXrXeXZ , :.6.&.%.%.%.%.%.%.%.#.@.....[ ..[ [ [ [ [ E U T T E E T T T T T J K Y H H H I x > P.rXrXrXrXrXrXrXrXrXrX",
"rXrXrXrXrXrXrXrXeXA 2 >.&.%.%.%.%.%.%.%.%.%.#.a.d.d.p.+.[ [ [ [ W 1.f.g.9.E U E T T T T T J H H H H H H P X P.rXrXrXrXrXrXrXrXrX",
"rXrXrXrXrXrXrXrXF 2 <.&.%.%.%.%.%.%.%.%.&...(.$XK.K.*Xi.[ X.[ [ .X$XA.Z.].&X2.U E T T T T T J H H H H H H P X T.rXeXrXrXrXrXrXrX",
"rXrXrXrXrXrXrXN.> >.&.%.%.%.%.%.%.%.%.%.#.h.*Xl U v {.2...#.[ %X5.= : : c } %Xi.U ' T T T T T J K I H H H H P > :XrXrXrXrXrXrXrX",
"rXrXrXrXeXrX+X> :.&.%.%.%.%.%.%.%.%.%.#.d.*XP ..0.#.XX2...[ .XZ.* [ s.E.6.U } %X .T E T T T T T J H I H H H I l 3 7XrXrXrXrXrXrX",
"rXrXrXrXrX3X3 C 7.%.%.%.%.%.%.%.%.%.%.@.(.A.R 8.%.@.XX2...7.$XP ..Q.=XZ.%X9.U !.H.U ' T T T T T T J H H H H H Y $ A rXrXrXrXrXrX",
"rXrXrXrXrXB a 6.&.%.%.%.%.%.%.%.#.#.7.#.E.Z.h.Q.#.#..X2.o.d.].U a. X* c f.[.U 9.W.T ] E  .E T T T T J K I H H H Y @ P.rXeXrXrXrX",
"rXrXrXrXI.> <.&.%.%.%.%.#.%.%.#.7.~.}.7.x.-X-X].[ #..X2...a.[.U x.H.W #.7.Q.U 9.!.U ] E d.x.1.T T T K H H H H H H z 4 6XrXrXrXrX",
"rXrXrXiX6 m %.#.%.$.%.#.d.7.#.w..XK.J.[ d.5.>.!.[ #..X3...a.Q.E h.H.W [ 7.!.U 7.x.U [ T 1.p.h.9.T T 6.E H K Y H H Y + M.rXrXrXrX",
"rXrXrXS.2 ,.#.#.%.%.#.p.XXw.7.oX2.2.i.@.%.R d.!.[ #.).4.@.r.E.W d.s.W X.7.d.U 8.d.T ] E ' 9.K ^.1.T x.w.H T K I H H H X 1XrXrXrX",
"rXrXiX6 m %.#.#.%.%.%.W.|.e.(.H.^ }. .%.%.%.d.s.[ %.b.+.@.e.d.W u.t.] #.8.d.T 7.r.U [ ] I p.1.' ^.| d.x. .H J H I H Y $ F rXrXrX",
"eXrXI.2 ,.@.#.#.#.@.a.J.g.(.}.^ }.2.[ %.%.#.r.w.[ %.c.+.#.e.d.W u.t.[ #.8.d.T 0.r.T [ ] ] J ^.L 9.h.p.4.w.H T J H K I K , 2XrXrX",
"rXrXN s #...#.#.#.@.E.J.E.&X2.a.W.U &.%.%.#.r.w.[ %.c.+.#.e.d.W u.t.[ #.8.d.T 0.r.T [ [ [ I } ~.L E.x.1.h.T T T J H H U + N.rXrX",
"rX1X3 ` ..[ [ #.#.@.).J.W.|.g.}.H #.8.%.%.#.r.w.[ %.c.O.#.e.d.W u.t.[ #.8.d.E e.r.E [ [ [ +.; 4.h.s.E.6.x.' T T T J H T l 6 qXrX",
"rXG.9 | [ [ ..X.#.#.).E.W.W.g.= ..~.w.#.%.#.r.w.[ %.c.O.#.e.d.W u.t.[ #.8.d.E e.r.E #.[ | h.7.* ' s.s.p.x.' T T T T J H T . ;XrX",
"rXZ s [ [ [ [ [ #.[ J.}.!.i.: 7.(.J.#.%.%.#.r.w.[ %.c.O.#.e.d.W u.t.[ &.8.z.E e.w.E #.[ W 9.h.a.= ' p.x.h.E T T T T T K T + m.rX",
"8X6 ( [ ] [ [ [ [ [ 9..Xf.{ e.E.4.i...%.%.#.r.w.[ %.c.+.#.e.d.W r.w.[ &.0.z.W r.w.E #...[ | 3.1.x.T 1.h.p.T E T T T T J T t h eX",
">X4 { W ] ] [ +.s.[  .g.2.1.E.L E. .#.%.%.#.r.w.[ %.c.+.#.0.d.W u.t.[ &.8.z.W r.w.W #.O.#.U s.{ 4.w.' 9.' U 6.+.T T T T T K 4 3X",
"P.9  .W ] ] W 6..X6.T 9.2.h.^ E.3.W 8.%.%.#.r.w.[ %.c.+.#.0.d.W r.z.@.@.r.d.T u.w.W %.#.#.[ J ^.L 9.1.9.U ] x.9.T E T T T T . @X",
"m.w  .E ] ] E 9.Q.h.] p.i.,.p.f.H &.%.%.%.#.r.w.[ %.c.+.#.0.z.[ 7.d.b.b.b.H [ c.7.W %.#.#.#.E L x.' 9.9.] 6.h.w.T E T T T T @ S.",
"Z s ] E ' ] E d.f.E.#.p.p.i.p.L @.#.#.%.%.#.e.r.[ %.b.[ #.%.b.r.#.#.] ' ; W %./.J #.%.#.#.#.#.T | 9.9.p.| d.4.d.E E E T T E # M.",
"N d E T E ] T h.f.p.a.h.Q.^ 4.d...#.#.#.%.#.c.t.W #.r.d.#.#.8._.r.#.#.[ #.%./.+.I 8.#.#.#.#...7.s.l 9.x.9.s.4.h.] E E E T E e A ",
"h d E T E E T 9.E.1.J.J.K ' E.w...#.#.#.#.c.OX+.r.c.r._._.%.%.%.c.b.r.r.j._.1.; 8.$.%.%.#.#.#.7.s.9.= 9.h.4.w.p.E ] E E T E r j ",
"h d T T T E E ) (.1.h.9.' f.3.d.[ #.#.#.#.8.+.+.+.+.+.+.' [ 8.%.] +.w.w.7.J c 8.%.$.%.%.%.#.#.7.a.4.9.| x.1.x. .E ] ] E E E r a ",
"h d T T T T ] H 4.h.p.a.d.3.E.w.[ #.#.#.#...E E W W E W W %.%.%.&.@.E U U ..8.%.%.%.%.%.%.#.#.#.~.1.a.w.a.w.9.H [ W W W E ] r a ",
"N u T T T T T T ; i.h.p.h.2.).1.[ [ ..#.#.#.%.%.&.8.8.8.8.%.%.%.%.%.8.8.8.&.%.%.%.%.%.%.%.%.#.X.h.p.w.a.a.p.H ] ] ] ] W ' ] r h ",
"Z y T T T T  . .U - a.a.f.a.E.E [ [ ....#.#.#.#.#.%.%.%.%.%.%.%.%.%.%.%.%.%.%.%.%.%.%.%.%.%.&...9.h.w.d.s.H W #.6.] ] ] ] [ q V ",
"M.w T J T T ' E.9.H ) E.p.h.E.| ] [ [ ....#.#.#.#.#.%.%.%.%.%.%.%.%.%.%.%.%.%.%.%.%.%.%.%.%.%.7.h.E.p.x.1.T w.h.1.] [ ] ] [ q G ",
"L.8 T H J T H 9.h.d.J f.h.h.E.h.] [ [ [ [ ..#.#.#.#.#.%.%.%.%.%.%.%.%.%.%.%.%.%.%.%.%.%.%.%.#.d.h.p.h.h.' d.a.p.E [ [ [ ] ] 8 F.",
";X9 T H H T H } 9.p.h.| h.} 3.h.6.W [ [ [ ....#.#.#.#.#.%.%.%.%.%.%.%.%.%.%.%.%.%.%.%.%.%.%.8.h.9. .9.4.w.h.1.6.W [ [ [ [ ' , U.",
"6X6 P I H H T z h.4.s.a.a.4.p.3.d.E [ [ [ [ [ ..#.#.#.#.#.%.%.%.%.%.%.%.%.%.%.%.%.%.%.%.%.#.e.p.w.a.d.p.h.} h.T #.....[ ..^ 4 <X",
"rXB t I H K J H K (.} i.a.3.s.4.h.' ] ] [ [ [ [ [ X.#.#.#.#.%.%.%.%.%.%.%.%.%.%.%.%.%.%.%.#.d.9.a.e.p.9.} ~.' W #.X...[ @.b a 0X",
"rXB.0 Y H I K T - L E.a.4.| p.9.d.] E ] ] [ [ [ [ O.#.#.#.#.#.%.%.%.%.%.%.%.%.%.%.%.%.%.%.#.d.p.d.4.1.s.h.' U &.#.#.#.[ #.8 G rX",
"rX>X< K H H K H T = * | p.p.x.p.h.a.[ E ] ] [ [ [ [ ..#.#.#.#.#.%.%.%.%.%.%.%.%.%.%.%.#.7.d.x.p.x.h.9.} = I 8.#.#.#.#.#.[ X U.rX",
"rXeXa l H H H H H ' H o o K h.E.s.h.h.6.E ] ] [ [ [ [ ..+.#.#.#.#.%.%.%.%.%.%.%.%.%.#.0.d.s.p.x.h.L = c #.e.%.%.#.#.#.%.M 2 5XrX",
"rXrXS.@ Y H H H H T d.w.1.; O p.x.} 3.p.9.E ] ] [ [ [ [ [ | #.#.#.#.%.%.%.%.%.%.%.#.e.s.1.+.p.x.= T j.v.x.| %.%.%.#.#.%.8 G rXrX",
"rXrX6X4 z H H H I = ' h.1.v.6.= x.T 6.' h.9.E ] ] [ [ [ [ [ #.#.#.#.#.%.%.%.%.%.#.e.x.L 9.' ~.K 7.^.,.p.,.U 8.%.%.#.&._ > @XrXrX",
"rXrXrXm.+ Y z H H Y * } 9.L p.9.L 9.H p.^ v.| E ] ] [ [ [ [ ..#.#.#.#.%.%.%.%.%.%.v.' 9.T 9.' 1.d.^ 9.1.H 8.%.%.%.%.&.q j qXrXrX",
"rXrXrX6X4 z H H H H Y * ' h.3.d.p.9.4.K 4.1.w.E ] ] W W [ [ ..O.#.#.#.#.#.%.%.#.e.3.,.) 1.d.p.x.9.h.} ; &.%.%.%.%.&._ > R.rXrXrX",
"rXrXrXrXB.@ K z H H H Y * * ' 9.E.~.'.d.{ 1.d.[ ] E 6.i.] ] [ [ X.[ [ 7.0.#.%.%.d.3.} 9.).E.h.4.' = I 8.%.%.%.%.%.8.8 V wXrXrXrX",
"rXrXrXrXwX7 % H z H H H Y H & O o * - K J ' h.p.T T h.%X).9.[ [ [ #.h.`.a.[ #.r.h. .H H - = * = U #.8.%.%.%.%.%.8.M 2 ,XrXrXrXrX",
"rXrXrXrXrX:XX H z H H H H H ,.9. . .1.1.' z H w.9.E p.oX).W.~.7.d.~.h./.%.[ d.p.K I +.7.9.9.e.v.d.%.%.%.%.%.%.&.} > V.rXrXrXrXrX",
"rXrXrXrXrXrXN.@ H z z H H H - 1.'.p.L L | p. .J d.e.j.`.v.3.^.`./.1.0.n.&.%.c.[ [ h.4.L K 4.^.4.H %.%.%.%.%.&.#.< j 7XrXrXrXrXrX",
"rXrXrXrXrXrXrXN + H z H z H H o z 9.x.h.s.d.c.r.0.q.u.n.c.0.+.u.0.%.y.k.&.@.=.q.y.q.d.h.~.9.H ; #.%.%.%.%.%.8.w 2 ,XrXrXrXrXrXrX",
"rXrXrXrXrXrXrX8X6 $ H z H H H K = o - z J #.[ =.q.=.y.l.W H [ ..%.W Q y.y.*.*.-.W Q U = = = E 8.%.%.%.%.%.8.n 1 Y.rXrXrXrXrXrXrX",
"rXrXrXrXrXrXrXrX2X3 $ H z H H H K I ; = H H H @.Q c =.k.*.$.W H $.&.*.k.=.I @.! T | ......8.8.%.%.%.%.%.8.n > D.rXrXrXrXrXrXrXrX",
"rXrXrXrXrXrXrXeXrX1X1 $ H z z H H H H T T J T T c T W y.y.U H [ E @.y.k.U W ..W #.#.#.%.%.#.%.%.%.%.&.8.i > F.rXrXrXrXrXrXrXrXrX",
"rXrXrXrXrXrXrXrXeXrX2X4 + H z H H H H H I K H T T T T W c I ] E ] E [ W U [ [ @.[ #.#.#.#.#.%.%.%.8.+.w 2 D.rXrXrXrXrXrXrXrXrXrX",
"rXrXrXrXrXrXrXrXrXeXrX7Xh . z H z H H H H I H H J T T T T E T E E ] W ] [ ] [ [ ..[ #.#.#.#.#.%.8._ 2 p U.rXrXrXrXrXrXrXrXrXrXrX",
"rXrXrXrXrXrXrXrXrXrXrXrXwXM.  e H H H H H H H K K J T T T T T E E E ] ] ] ] [ [ [ [ X.#.#.#.&.+.n > k <XrXrXrXrXrXrXrXrXrXrXrXrX",
"rXrXrXrXrXrXrXrXrXrXrXrXrXrX@X6 X t K H H H H H K H J T T T T T E E E ] ] ] ] [ [ [ [ @.#.#.( < 2 V.8XrXrXrXrXrXrXrXrXrXrXrXrXrX",
"rXrXrXrXrXrXrXrXrXrXrXrXrXrXrX0XF.1 . t H I H H H K H J T T T T T E E ' ] W ] ] [ ..@.[ b < > S ,XrXrXrXrXrXrXrXrXrXrXrXrXrXrXrX",
"rXrXrXrXrXrXrXrXrXrXrXrXrXrXrXrXrX3Xm.4 X + l K Y U T T T T T T T T T E W ] [ [  .^ i , , V #XwXrXrXrXrXrXrXrXrXrXrXrXrXrXrXrXrX",
"rXrXrXrXrXrXrXrXrXrXrXrXrXrXrXrXrXrXrX9XD.h > X @ e P K K T T T T E E E L ~ u q , > a C.,XwXrXrXeXrXrXrXrXrXrXrXrXrXrXrXrXrXrXrX",
"rXrXrXrXrXrXrXrXrXrXrXrXrXrXrXrXrXrXrXrXrXwX<XD.S p 4 , , 8 8 8 8 8 8 < , 2 p k V.@X9XrXrXrXrXrXrXrXrXrXrXrXrXrXrXrXrXrXrXrXrXrX",
"rXrXrXrXrXrXrXrXrXrXrXrXrXrXrXrXrXrXrXrXrXrXrXrXrX7X,XY.F.M.D V V S G V.D.@X2XiXrXrXrXrXrXrXrXrXrXrXrXrXrXrXrXrXrXrXrXrXrXrXrXrX"
};
