/* XPM */
static char *_93f335a79164f5fcf1d5cdfc71bc9b02GPHMJhQCmsQUdU7[] = {
/* columns rows colors chars-per-pixel */
"64 64 205 2 ",
"   c #0E0B0B",
".  c #0A0505",
"X  c #120E0E",
"o  c #1B0D0E",
"O  c #151212",
"+  c #191515",
"@  c #1D1A1A",
"#  c #1E0F10",
"$  c #230D0E",
"%  c #2D0B0D",
"&  c #3C0A0C",
"*  c #320A0C",
"=  c #240F10",
"-  c #2D0F10",
";  c #320F10",
":  c #3C0F11",
">  c #241011",
",  c #2D1213",
"<  c #201D1D",
"1  c #351012",
"2  c #3B1113",
"3  c #381C1D",
"4  c #252323",
"5  c #2D2C2C",
"6  c #362425",
"7  c #3C2728",
"8  c #3A2829",
"9  c #343233",
"0  c #3D3C3C",
"q  c #393738",
"w  c #420B0D",
"e  c #4D0C0F",
"r  c #470E11",
"t  c #5B0F12",
"y  c #431315",
"u  c #4B1316",
"i  c #4F1518",
"p  c #4A1B1E",
"a  c #44191B",
"s  c #531619",
"d  c #5D161A",
"f  c #551619",
"g  c #64161B",
"h  c #65181C",
"j  c #6D191E",
"k  c #641115",
"l  c #721A1F",
"z  c #70171C",
"x  c #501E21",
"c  c #6B1D21",
"v  c #631F22",
"b  c #7D1C22",
"n  c #731C20",
"m  c #482729",
"M  c #58292B",
"N  c #48393A",
"B  c #593538",
"V  c #552F31",
"C  c #662629",
"Z  c #762227",
"A  c #7C2126",
"S  c #742529",
"D  c #71292D",
"F  c #7B262B",
"G  c #682E32",
"H  c #712E32",
"J  c #6C3539",
"K  c #673639",
"L  c #793236",
"P  c #643F42",
"I  c #753F43",
"U  c #4C4C4D",
"Y  c #484445",
"T  c #554647",
"R  c #5C5C5C",
"E  c #575555",
"W  c #504F51",
"Q  c #6E4548",
"!  c #6D4C4E",
"~  c #6B4346",
"^  c #75474A",
"/  c #6E4E50",
"(  c #674E50",
")  c #744E51",
"_  c #625B5C",
"`  c #6B5658",
"'  c #735255",
"]  c #745B5E",
"[  c #79585B",
"{  c #5F5F60",
"}  c #745F61",
"|  c #636364",
" . c #666668",
".. c #6B6A6B",
"X. c #6C6667",
"o. c #77686A",
"O. c #786F71",
"+. c #737374",
"@. c #7B7B7C",
"#. c #797577",
"$. c #6F7072",
"%. c #841E24",
"&. c #8C1E24",
"*. c #921F25",
"=. c #981F26",
"-. c #842126",
";. c #8D2026",
":. c #82252A",
">. c #952127",
",. c #9C2027",
"<. c #952228",
"1. c #9C2329",
"2. c #A6252C",
"3. c #A8252C",
"4. c #81696C",
"5. c #857679",
"6. c #7D7E80",
"7. c #8A7E81",
"8. c #7F8082",
"9. c #838485",
"0. c #8B8B8C",
"q. c #898587",
"w. c #93888B",
"e. c #958E91",
"r. c #8E9193",
"t. c #959495",
"y. c #999396",
"u. c #96999C",
"i. c #9A9B9D",
"p. c #979799",
"a. c #8D8F91",
"s. c #A09C9F",
"d. c #9D9FA2",
"f. c #A29FA2",
"g. c #9FA1A3",
"h. c #A3A3A5",
"j. c #A6A9AC",
"k. c #ABACAD",
"l. c #A5A6AA",
"z. c #AAADB0",
"x. c #B0AFB1",
"c. c #AEB1B5",
"v. c #B2B3B5",
"b. c #B3B6BA",
"n. c #B6BABD",
"m. c #B9BCBE",
"M. c #B8B7B7",
"N. c #B7BDC1",
"B. c #BABEC1",
"V. c #BEC1C5",
"C. c #C2C3C5",
"Z. c #C2C6C9",
"A. c #C5C9CE",
"S. c #CACCCD",
"D. c #CACED2",
"F. c #C5CCD0",
"G. c #CCD1D5",
"H. c #CFD4D9",
"J. c #D3D4D4",
"K. c #D1D6DB",
"L. c #D4D9DE",
"P. c #DADCDC",
"I. c #D5DBE0",
"U. c #DFE0E0",
"Y. c #E2E2E2",
"T. c #EDEDEE",
"R. c #EDEDEF",
"E. c #EEEEEF",
"W. c #EEEEEE",
"Q. c #ECECED",
"!. c #EDEDEE",
"~. c #E6E7E8",
"^. c #EFEFF0",
"/. c #EFEFF0",
"(. c #F0F0F1",
"). c #F1F1F1",
"_. c #F1F1F2",
"`. c #F2F2F3",
"'. c #F3F3F3",
"]. c #F3F3F4",
"[. c #F4F4F5",
"{. c gray96",
"}. c #F4F4F4",
"|. c #F5F5F6",
" X c #F6F6F6",
".X c #F7F7F7",
"XX c #F3F3F4",
"oX c #F7F7F8",
"OX c #F7F7F8",
"+X c #F8F8F8",
"@X c #F8F8F9",
"#X c #F9F9F9",
"$X c #FAFAFB",
"%X c #FBFBFB",
"&X c gray98",
"*X c #F9F9FA",
"=X c gray99",
"-X c #FDFDFD",
";X c #FCFCFD",
":X c #FEFEFE",
">X c white",
",X c #FDFDFE",
"<X c #FCFCFC",
"1X c #F7F8F8",
"2X c #EFF0F1",
/* pixels */
">X>X#XE.E.#X>X>X`.E.|.>X>X|.E.`.>X>X#XE.E.#X>X>X`.E.|.>X>X|.E.`.>X>X#XE.E.#X>X>X`.E.|.>X>X|.E.`.>X>X#XE.E.#X>X>X`.E.|.>X>X|.E.E.",
">X>X#XE.E.#X>X>X`.E.|.>X>X|.E.`.>X>X#XE.E.#X>X>X`.E.|.>X>X|.E.`.>X>X#XE.E.#X>X>X`.E.|.>X>X|.E.`.>X>X#XE.E.#X>X>X`.E.|.>X>X|.E.E.",
">X>X#X^.^.#X>X>X`.E.|.>X>X|.E.`.>X>X#X^.^.#X>X>X`.E.|.>X>X|.E.`.>X>X#X^.^.#X>X>X`.E.|.>X>X|.E.`.>X>X#X^.^.#X>X>X`.E.|.>X>X|.E.^.",
"`.`.|.#X#X|.`.].#X#X#X`.`.#X#X#X].`.|.#X#X|.`.].#X#X#X`.`.#X#X#X].`.|.#X#X|.`.].#X#XoX`.`.#X#X#X].`.|.#X#X|.`.].#X#X#X`.`.#X#X#X",
"E.E.|.>X>X|.E.`.>X>X#XE.E.#X>X>X`.E.].>X>X|.E.`.>X>X#XE.E.#X>X>X`.E.|.>X>X|.E.`.>X>X#XE.E.#X>X>X`.E.|.>X>X|.E.`.>X>X#XE.E.#X>X>X",
"E.E.|.>X>X|.E.`.>X>X#XE.E.#X>X>X`.E.|.>X>X|.E.`.>X>X#XE.E.#X>X>X`.E.|.>X>X|.E.`.>X>X#XE.E.#X>X>X`.E.|.>X>X|.E.`.>X>X#XE.E.#X>X>X",
"#X#XoX|.|.oX#X#X|.|.|.#X#X|.|.|.#X#XoX|.|.oX#X#X|.|.|.#X#X|.|.|.#X#XoX|.|.oX#X#X|.|.|.#X#X|.|.|.#X#XoX|.|.oX#X#X|.|.|.#X#X|.|.|.",
">X>X#XE.E.#X>X>X`.E.|.>X>X|.E.`.>X>X#XE.E.#X>X>XXXE.|.>X>X|.E.`.>X>X#XE.E.#X>X>X`.E.|.>X>X|.E.`.>X>X#XE.E.#X>X>X`.E.|.>X>X|.E.E.",
">X>X#XE.E.#X>X>X`.E.|.>X>X|.E.`.>X>X#XE.^.%XQ.v.i.Y.|.>X>X|.E.`.>X>X#XE.E.#X>X>X`.E.|.>X>X|.E.`.>X>X#XE.E.#X>X>X`.E.|.>X>X|.E.E.",
"#X#X|.|.|.|.#XoX|.|.|.#X#X|.|.|.oX#XoX#XY.t.0 O X 9.|.#X#X|.|.|.oX#X|.|.|.|.#XoX|.|.|.#X#X|.|.|.oX#X|.|.|.|.#XoX|.|.|.#X#X|.|.|.",
"E.E.|.>X>X|.E.`.>X>X#XE.E.#X>X>X`.`.E.x.Y O O 9 @.| m.`.E.#X>X>X`.E.|.>X>X|.E.`.>X>X#XE.E.#X>X>X`.E.|.>X>X|.E.`.>X>X#XE.E.#X>X>X",
"E.E.|.>X>X|.E.`.>X>X#XE.E.#X>X>X^.m.R + X @ ..h.D.c.#.E.E.#X>X>X`.E.|.>X>X|.E.`.>X>X#XE.E.#X>X>X`.E.|.>X>X|.E.`.>X>X#XE.E.#X>X>X",
"`.`.|.#X#X|.`.|.#X#X#X|.|.#X~.k.| @ X X X + 9 | i.G...J.|.#X#X#X|.`.|.#X#X|.`.|.#X#X#X`.`.#X#X#X|.`.|.#X#X|.`.|.#X#X#X`.`.#X#X#X",
">X>X#XE.E.#X>X>X`.`.`.Y.k. .5 X   X X   - f ; : N N.0.k.>X|.E.`.>X>X#XE.E.#X>X>X`.E.|.>X>X|.E.^.>X>X#XE.E.#X>X>X`.E.|.>X>X|.E.E.",
">X>X#XE.E.#X>X#XJ.i.| 5 O     X X X X X $ g &.2.h @.b.@.>X|.E.`.>X>X#XE.E.#X>X>X`.E.|.>X>X|.E.^.>X>X#XE.E.#X>X>X`.E.|.>X>X|.E.E.",
">X>X#X`.`.E.i.E 4     X X X X X O O o y b 2.F F *.T A...Y.|.`.`.#X>X#X`.`.#X>X#X`.`.|.>X>X|.`.`.#X>X#X`.`.#X>X#X`.`.|.>X>X|.`.`.",
"`.^.|.>X>XM.O   X X X X X X O O X 1 b 2.3.2.1.<.2.V b.9.k.>X>X>X`.^.|.>X>X|.^.`.#X>X#X`.^.#X>X>X`.^.|.>X>X|.^.`.>X>X#X`.`.#X>X>X",
"E.E.|.>X>Xk.X X X O O O O O X - h 1.3.2.2.2.2.3.3.H u.h.@.#X>X>X`.E.|.>X>X|.E.`.>X>X#XE.E.#X>X>X`.E.|.>X>X|.E.`.>X>X#XE.E.#X>X>X",
"^.^.|.>X>Xq.X + O + + O o - j <.3.2.2.2.2.2.2.n u x 9.k. .P.>X>X`.^.|.>X>X|.^.`.>X>X#X^.^.#X>X>X`.^.|.>X>X|.^.`.>X>X#X^.^.#X>X>X",
">X>X#X`.|.+.X + O O o ; j 1.3.3.2.2.2.2.2.2.2.y   X 5 +.9.q.`.`.#X>X#X`.`.#X>X#X`.`.|.>X>X|.`.`.#X>X+X`.`.|.>X#X`.`.|.>X>X|.`.`.",
">X>X#XE.^. .X O X - j 1.3.2.2.<.2.>.>.2.2.2.3.%.% o X   U  .J.`.>X>X#XE.E.#X>X>X`.E.|.>X>X|.E.`.>X>X#XE.E.#X>X>X`.E.|.>X>X|.E.E.",
">X>X#XE.Q.U X - h <.3.2.b d g i h s <.2.2.3.2.l h n _ 4 9  .P.`.>X>X#XE.E.#X>X>X`.E.|.>X>X|.E.`.>X>X#XE.E.#X>X>X`.E.|.>X>X|.E.E.",
"|.|.|.#XQ.N z <.3.2.2.;.y y 2 1 1 j 2.2.3.;.s b 3.-.R 4 + 5 J.>X|.|.|.#X#X|.|.|.#X#XoX|.|.oX#X#X|.|.|.#X#X|.|.|.#X#X|.].|.oX#X#X",
"E.E.|.>X~.K 2.2.2.2.2.l 2 1 % 1 u <.3.2.l $ 1 2.1.y X     X 9.Y.Q.^.|.>X>X|.E.`.>X>X#XE.E.#X>X>X`.E.|.>X>X|.E.`.>X>X#XE.E.#X>X>X",
"E.E.|.>XP.G 2.2.2.3.%.y 2 1 ; y l 3.<.s o O 1 1.u X X   X   X 4 E J.|.>X>X|.E.`.>X>X#XE.E.#X>X>X`.E.|.>X>X|.E.`.>X>X#XE.E.#X>X>X",
"|.|.|.#XS.C 2.2.2.2.b 1 1 : 2 l 2.&.1 O O O ; %.o = g > o u o   . _ Y.#XoX|.|.|.|.|.|.|.|.|.|.|.|.|.|.|.|.|.|.|.|.|.|.|.|.|.|.|.",
">X>X#X`.m.C 3.2.2.b s u i d %.2.%.= O + O + 7 <.%.;.>.$ f 3.j X   X 9 t.Q.#X>X>X`.E.|.>X>X|.E.2X>X>X#XE.E.#X>X>X`.E.|.>X>X|.E.E.",
">X>X#X`.i.p ,.3.3.1.1.1.1.2.3.1.1 O O X 5 a.e.A 2.3.2.&.1.3.c X       , E R v.>X`.E.|.>X>X|.E.`.>X>X#XE.E.#X>X>X`.E.|.>X>X|.E.E.",
"#X#XoX|.9.@.' S %.,.3.3.3.2.3.l o X @ | n.L.G.5.J H S A *.2.c X y o o s $ . 6 t.P.|.#X#X#X|.].|.#X#XoX].].oX#X#X|.].|.#X#X|.].].",
"E.E.|.>X@.0.G.c.7./ D %.*.,.,.: + W l.K.L.K.K.H.Z.N.c.i.o.D *.j &.> X     $ h $ 9 i.J.Q.`.#X>X>X`.E.|.>X>X|.E.`.>X>X#XE.E.#X>X>X",
"E.E.XX#XU + E h.G.H.n.e.o./ ' O.g.G.L.K.K.K.K.K.K.K.Z.L.L.i.H 2.>.= $ : $ X X X X ; @  .P.#X>X>X`.E.|.>X>X|.E.`.>X>X#XE.E.#X>X>X",
"`.`.|.Q.9 O + @ 0 @.z.D.L.K.K.L.L.K.K.K.K.K.K.K.K.D.E 0.K.L.t.F 2.u 2 j u X X   X $ X * ] `.>X#X`.`.|.>X>X|.`.`.#X>X#X`.`.#X>X>X",
">X>X#XP.B g , + + + < q  .u.B.H.L.L.K.K.K.K.K.K.K.H.U + 6.K.K.5.-.2.;.l s o i o     X a m Z.E.|.>X>X#X^.^.#X>X>X`.^.|.>X>X|.^.^.",
">X>X#XJ.G 2.<.d , + + + + + 5 U @.j.A.K.L.L.K.K.K.G.U + < u.L.G.O.S *.l %.j ;.# $ $ X U $.R  .t.C.Y.Q.E.`.>X>X>X].^.|.>X>X|.E.E.",
">X>X#XS.M 2.2.3.<.l 2 + + @ @ + + @ q { a.n.G.L.I.A.q @ + U D.K.H.d.P d 2.3.<., h f   p 5.A.z.9. .R R  .@.0.h.x.C.P.|.>X>X|.^.^.",
"`.`.#XG.C 2.2.2.2.3.2.%.i > + + @ @ @ + + 4 Y +.q. .@ @ @ 4 c.L.K.L.N.K 2.2.2.;.2.j , &.' H.L.H.H.Z.N.j.p.0.@.$.R Y 0.Q.`.#X>X>X",
"E.E.oXS.C 3.2.2.2.2.2.3.2.&.a U 5 + + @ @ @ + + + + @ @ @ @ d.L.K.K.G.^ 2.2.2.3.2.2.<.>.4.K.H.D.G.A.D.D.G.H.D.K.c.K d 0.2X#X>X>X",
"E.E.#Xm.c 3.2.2.2.2.2.2.2.3.-.w.V.t.R 9 @ + @ < @ @ @ @ @ 4 c.L.K.K.F.^ 2.2.2.2.2.2.3.c i.L.H.D.G.D.D.G.Z.N.g.O.J >.1.V S.%X>X>X",
"#X#X=Xk.c 3.2.2.2.2.2.2.2.2.2.^ D.L.K.V.u.| 9 @ + + @ @ O U G.K.K.L.N.L 2.2.2.2.2.2.<.u y.I.G.A.n.d.q.o.Q H Z &.2.2.3.b #.|.].].",
">X>X>Xh.n 3.2.2.2.2.2.2.2.2.3.F k.L.K.K.L.L.Z.i. .Y q 0  .n.K.K.K.L.l.:.3.2.2.2.2.2.j C v.H.y.! H Z %.=.2.2.3.2.2.2.2.1.m C.`.E.",
">X>X>Xk.c 3.2.2.2.2.2.2.2.2.2.*.5.L.K.K.K.K.K.L.L.G.A.D.K.L.K.K.K.L.7.*.2.2.2.2.3.%.l I N.O.Z ,.2.3.3.2.2.2.2.2.2.3.2.-._ +.Q.E.",
"|.|.#XZ.m &.=.2.2.2.3.3.3.3.3.2.I A.K.K.K.K.K.K.K.K.K.K.K.K.K.K.K.G.) 2.2.2.2.2.2.h <.:.K -.3.2.2.2.2.2.2.2.3.2.1.%.G 5.c.| Y.#X",
"E.E.#Xh...5.] Q J H D D Z A %.&.c t.A.A.D.G.H.K.L.L.L.L.K.K.K.K.L.c.F 3.2.2.2.3.%.l 3.2.2.2.2.2.3.3.3.2.2.=.%.D ! q.b.V.c.W P.>X",
"E.E.#Xt.0.N.n.n.c.c.k.j.h.h.0.5.O.#.9.6.6.6.8.9.0.p.h.c.N.Z.D.K.L.7.*.3.3.3.3.2.j <.3.2.2.2.1.=.&.%.S J Q ] q.j.N.N.n.i./ m Y.>X",
"|.|.#Xp.i.K.D.A.Z.V.B.m.n.m.n.N.V.V.V.V.B.B.N.n.c.l.i.a.9.8.6.8.9.T C S A A A C x D H J J ~ ) o.5.0.g.c.b.m.V.V.N.i.] C w #.|.#X",
">X>X>Xt.i.L.K.K.K.K.K.K.K.K.G.D.A.Z.V.Z.V.B.m.n.b.n.N.V.V.C.C.N.b.k.k.j.i.i.i.h.z.c.b.m.N.N.N.N.N.N.V.Z.D.D.n.w.) v k w E I.^.E.",
">X>X>Xt.u.I.K.K.K.K.K.K.K.K.K.K.K.K.K.K.K.K.K.K.K.G.G.A.Z.V.N.n.m.m.m.m.m.m.n.n.m.m.m.m.N.V.Z.A.G.L.K.N.e.' C h k e 3 X.I.|.E.E.",
"%X%X>Xt.X.Z.H.K.L.L.L.L.L.L.L.L.L.L.L.L.L.L.L.L.L.K.K.L.L.L.K.K.K.K.K.K.K.K.K.K.K.K.L.L.I.I.L.G.N.y.[ G g k t r 7 X.C.#X>X|.`.`.",
"^.^.#Xl.; V ( } 4.5.5.w.e.y.y.p.s.f.l.k.x.v.b.m.B.Z.Z.A.D.H.H.K.K.K.H.H.H.H.K.H.G.A.V.v.f.q.4.! C d t e 2 6 T t.P.>X>X^.E.#X>X>X",
"E.E.|.Q.#.6 % % & e e e u r s i f y f a d p M m M V K B P ! ` ] ] ] ' ) ! ' ` ' T K M p y w w w 1 3 N $.l.S.~.|.>X>X#XE.E.#X>X>X",
"`.`.|.>X#XJ.v.t.@._ T Y N N N 8 7 7 7 6 7 6 7 6 7 3 3 3 1 - * & * & % & * & % ; , 3 8 N T _ $.0.k.C.~.>X>X|.`.`.>X>X#X`.^.#X>X>X",
">X>X#X`.`.#X>X>X|.E.E.|.`.~.P.P.U.Y.P.J.J.P.Y.U.J.D.S.S.V.v.j.g.i.t.0.q.q.0.h.v.m.S.P.E.|.`.`.|.>X>X#X`.`.#X>X#X`.`.|.>X>X|.`.`.",
">X>X#XE.E.#X>X>X`.E.|.>X>X|.^.`.>X>X#X`.`.#X>X>X`.`.|.>X>X#X`.|.>X>X>X].`.>X>X>X].`.|.>X>X|.E.`.>X>X#XE.E.#X>X>X`.E.|.>X>X|.E.E.",
">X>X#X^.^.#X>X>X`.E.|.>X>X|.E.`.>X>X#X^.^.#X>X>X`.E.|.>X>X|.E.`.>X>X#XE.E.#X>X>X`.E.|.>X>X|.E.`.>X>X#X^.^.#X>X>X`.E.|.>X>X|.E.E.",
"`.`.|.#X#X|.`.].#X#X#X`.`.#X#X#X].`.|.#X#X|.`.].#X#X#X`.`.#X#X#X].`.|.#X#X|.`.].#X#X#X`.`.#X#X#X].`.|.#X#X|.`.].#X#X#X`.`.#X#X#X",
"E.E.|.>X>X|.E.`.>X>X#XE.E.#X>X>X`.E.|.>X>X|.E.`.>X>X#XE.E.#X>X>X`.E.|.>X>X|.E.`.>X>X#XE.E.#X>X>X`.E.|.>X>X|.E.`.>X>X#XE.E.#X>X>X",
"E.E.|.>X>X|.E.`.>X>X#XE.E.#X>X>X`.E.|.>X>X|.E.`.>X>X#XE.E.#X>X>X`.E.|.>X>X|.E.`.>X>X#XE.E.#X>X>X`.E.|.>X>X|.E.`.>X>X#XE.E.#X>X>X",
"#X#X|.|.|.|.#X#X|.|.|.#X#X|.|.|.#X#X|.|.|.|.#X#X|.|.|.#X#X|.|.|.#X#X|.|.|.|.#X#X|.|.|.#X#X|.|.|.#X#X|.|.|.|.#X#X|.|.|.#X#X|.|.|.",
">X>X#XE.E.#X>X>X`.E.|.>X>X|.E.`.>X>X#XE.E.#X>X>X`.E.|.>X>X|.E.`.>X>X#XE.E.#X>X>X`.E.|.>X>X|.E.`.>X>X#XE.E.#X>X>X`.E.|.>X>X|.E.E.",
">X>X#XE.E.#X>X>X`.E.|.>X>X|.E.`.>X>X#XE.E.#X>X>X`.E.|.>X>X|.E.`.>X>X#XE.E.#X>X>X`.E.|.>X>X|.E.`.>X>X#XE.E.#X>X>X`.E.|.>X>X|.E.E.",
"#X#X|.|.|.|.#X#X|.|.|.#X#X|.|.|.#X#X|.|.|.|.#X#X|.|.|.#X#X|.|.|.#X#X|.|.|.|.#X#X|.|.|.#X#X|.|.|.#X#X|.|.|.|.#X#X|.|.|.#X#X|.|.|.",
"E.E.|.>X>X|.E.`.>X>X#XE.E.#X>X>X`.E.].>X>X|.E.`.>X>X#XE.E.#X>X>X`.E.].>X>X|.E.`.>X>X#XE.E.#X>X>X`.E.].>X>X|.E.`.>X>X#XE.E.#X>X>X",
"E.E.|.>X>X|.E.`.>X>X#XE.E.#X>X>X`.E.|.>X>X|.E.`.>X>X#XE.E.#X>X>X`.E.|.>X>X|.E.`.>X>X#XE.E.#X>X>X`.E.|.>X>X|.E.`.>X>X#XE.E.#X>X>X",
"`.`.|.>X>X|.`.`.#X>X#X`.`.#X>X#X`.`.|.>X>X|.`.`.#X>X#X`.`.#X>X#X`.`.|.>X>X|.`.`.#X>X#X`.`.#X>X#X`.`.|.>X>X|.`.`.#X>X#X`.`.#X>X>X"
};
