/* XPM */
static char *b34228254168480ce97431fa34d2726aupnvQg5tK754NFq1[] = {
/* columns rows colors chars-per-pixel */
"64 64 223 2 ",
"   c #020203",
".  c #030309",
"X  c #0B0B0A",
"o  c #090609",
"O  c #140F0C",
"+  c #0C0D11",
"@  c #110E10",
"#  c #141314",
"$  c #161619",
"%  c #191A1B",
"&  c #1C1717",
"*  c #101110",
"=  c #231D1C",
"-  c #281A18",
";  c #351716",
":  c #24170D",
">  c #2B241D",
",  c #26221B",
"<  c #34251B",
"1  c #1C1921",
"2  c #231E21",
"3  c #2D1F22",
"4  c #3C1A23",
"5  c #1E262B",
"6  c #242323",
"7  c #2C2424",
"8  c #2D2926",
"9  c #23252A",
"0  c #2D2A2A",
"q  c #28282D",
"w  c #332526",
"e  c #322A26",
"r  c #33252A",
"t  c #3A2729",
"y  c #332B2A",
"u  c #3C2A2A",
"i  c #3B2826",
"p  c #35322D",
"a  c #3A342E",
"s  c #3A3326",
"d  c #272D33",
"f  c #332D31",
"g  c #2D3234",
"h  c #2B343A",
"j  c #253137",
"k  c #333535",
"l  c #3B3532",
"z  c #3C3A35",
"x  c #34343A",
"c  c #3C3C3A",
"v  c #37383B",
"b  c #510C0D",
"n  c #701009",
"m  c #50211B",
"M  c #782B1E",
"N  c #462627",
"B  c #43342A",
"V  c #453734",
"C  c #523233",
"Z  c #6A2D24",
"A  c #44423B",
"S  c #49433A",
"D  c #4E493F",
"F  c #584736",
"G  c #343D42",
"H  c #573B41",
"J  c #3B4042",
"K  c #4D4A43",
"L  c #444545",
"P  c #474F52",
"I  c #4B514C",
"U  c #AE0D0D",
"Y  c #8A2510",
"T  c #A62F1B",
"R  c #BD1D27",
"E  c #BC1E29",
"W  c #B41D26",
"Q  c #AF1924",
"!  c #90332F",
"~  c #BC242D",
"^  c #B4212A",
"/  c #A63428",
"(  c #B63729",
")  c #AA3535",
"_  c #B32E31",
"`  c #C91A0D",
"'  c #CD1A0C",
"]  c #DE250C",
"[  c #CA2B1A",
"{  c #DB2B18",
"}  c #C8351C",
"|  c #D93518",
" . c #DA350D",
".. c #EA2C0D",
"X. c #F2350D",
"o. c #EB2D15",
"O. c #E43415",
"+. c #EB3314",
"@. c #E4341C",
"#. c #EC3419",
"$. c #E9391A",
"%. c #F23313",
"&. c #F2321A",
"*. c #F33817",
"=. c #F32C19",
"-. c #C21F26",
";. c #CD1E29",
":. c #C11E28",
">. c #D01E28",
",. c #C3232B",
"<. c #CE212B",
"1. c #CB2828",
"2. c #D32326",
"3. c #D3232B",
"4. c #D82A2A",
"5. c #C83425",
"6. c #DD3229",
"7. c #D53527",
"8. c #D32B33",
"9. c #C33833",
"0. c #D53938",
"q. c #E33924",
"w. c #E73625",
"e. c #F63525",
"r. c #E43A31",
"t. c #E62B2B",
"y. c #9A412E",
"u. c #B84434",
"i. c #E64318",
"p. c #D94737",
"a. c #C94936",
"s. c #E74336",
"d. c #F0462E",
"f. c #BF3D49",
"g. c #DB1E48",
"h. c #C81A42",
"j. c #EB1F4B",
"k. c #E21F49",
"l. c #DF214A",
"z. c #EA204B",
"x. c #F3224E",
"c. c #FE2452",
"v. c #924842",
"b. c #AD584F",
"n. c #9F6249",
"m. c #BC605B",
"M. c #CE4548",
"N. c #D9A863",
"B. c #C5AF86",
"V. c #C9B98C",
"C. c #D6BB8F",
"Z. c #D6BE91",
"A. c #DBBD91",
"S. c #C8B099",
"D. c #D7BBA2",
"F. c #D6C294",
"G. c #DAC295",
"H. c #D9CD95",
"J. c #DCC699",
"K. c #DACF99",
"L. c #E5CD9C",
"P. c #E9CF9D",
"I. c #E5C093",
"U. c #E5D19E",
"Y. c #EAD09F",
"T. c #E5D89D",
"R. c #E9DB9E",
"E. c #D8C8A9",
"W. c #E4CEA2",
"Q. c #E9CFA1",
"!. c #E6D0A2",
"~. c #EBD3A1",
"^. c #EADDA1",
"/. c #EBD4AC",
"(. c #E4D3AB",
"). c #F1D5A2",
"_. c #F7DCA7",
"`. c #F8DDA7",
"'. c #F7DCA9",
"]. c #F9DDAA",
"[. c #E9D4B2",
"{. c #E6D2B4",
"}. c #F7DEB4",
"|. c #EEE0A3",
" X c #FDE1AC",
".X c #FCEEAD",
"XX c #F0E2A5",
"oX c #FFF2AE",
"OX c #FEE2B5",
"+X c #FEE3BA",
"@X c #FEE8BC",
"#X c #F2E4BB",
"$X c #FFF5B1",
"%X c #9ABFD0",
"&X c #95B6C7",
"*X c #AABFCE",
"=X c #9FC0CF",
"-X c #A5CADE",
";X c #AACCDE",
":X c #A8C4D6",
">X c #A9CEE2",
",X c #A7CFE2",
"<X c #B9CEE1",
"1X c #ABD1E3",
"2X c #AFD6EB",
"3X c #AAD5E8",
"4X c #B1D7EB",
"5X c #B1D9ED",
"6X c #B7D4E7",
"7X c #B4DDF1",
"8X c #B8DFF2",
"9X c #BEE6FC",
"0X c #BFE9FF",
"qX c #B7E0F4",
"wX c #CFD2D5",
"eX c #D5D6D4",
"rX c #FEE3C2",
"tX c #FDEAC2",
"yX c #C3DFF4",
"uX c #C2EDFF",
"iX c #C6F1FF",
"pX c #F0FDFF",
"aX c #E9D5C3",
/* pixels */
"0X0X0X0X0X0X0X0X0X0X0X0X0X0X0X0X0X0X0X0X0X0X0X9XuX5XG %Xq 5 *XH *X0 r :Xe 0 :Xf & f :Xk < 9 ;XyXuXuX0X0X0X0X0X0X0X0X0X0X0X0X0X0X",
"0X0X0X0X0X0X0X0X0X0X0X0X0X0X0X0X0X0X0X0X0X0X0XuXuX>X5 9 2 - ) 9.0.,.,.0.7.,.p.7.7.5.M.u.Y 3 y f.<XqXuX0X0X0X0X0X0X0X0X0X0X0X0X0X",
"0X0X0X0X0X0X0X0X0X0X0X0X0X0X0X0X0X0X0X0X0X0XuX7X;Xk - b ( [ O.3.>.3.@.o.3.3.+.&.o.*...X.*.s./ ,.; j 1XuX0X0X0X0X0X0X0X0X0X0X0X0X",
"0X0X0X0X0X0X0X0X0X0X0X0X0X0X0X0X0X0X0X0X0XuX1Xv b n } | $.%.+.O.3.<.3.3.3.t.3.@.%.%.=.&.*.*.$.0.M : k 1XuX0X0X0X0X0X0X0X0X0X0X0X",
"0X0X0X0X0X0X0X0X0X0X0X0X0X0X0X0X0X0X0X0XuX,Xx ) 7.$.&.&.#.#.#.#.{ 3.3.r.3.3.3.w.*.d.$.6.q.+.%.e.p.u.b g qXuX0X0X0X0X0X0X0X0X0X0X",
"0X0X0X0X0X0X0X0X0X0X0X0X0X0X0X0X0X0X0XuX1Xl n 7.&.%.2.<.3.3.3.3.3.<.<.3.<.<.<.3.e.$.| ` 6.2.] =.| p.n 0 >XuX0X0X0X0X0X0X0X0X0X0X",
"0X0X0X0X0X0X0X0X0X0X0X0X0X0X0X0X0X0XuX1Xx T @.w.] { [ 7.3.3.<.<.;.3.<.<.<.<.O.3.2.2.o.O.w.` { '  .i.p.b.V 7XuX0X0X0X0X0X0X0X0X0X",
"0X0X0X0X0X0X0X0X0X0X0X0X0X0X0X0X0XuXqXh - | o.o.' w.3.| *.%.3.;.U t.3.<.3.3.3.q...%.e.r.3.O.X.%.X.+.4.| Z ;XuX0X0X0X0X0X0X0X0X0X",
"0X0X0X0X0X0X0X0X0X0X0X0X0X0X0X0X0XuXwXt ( e.3.| | q.<.U 6.q.7.<.;.3.<.<.w...2.3.2.2.3.t.3.2...&.X.$.6.i.Y u 7XuX0X0X0X0X0X0X0X0X",
"0X0X0X0X0X0X0X0X0X0X0X0X0X0X0X0XuX8XV W 8.,.3.3.3.3.3.<.3.<.<.<.<.3.3.3.6.%.{ 6.*.+.3.3.,.;.3.3.O.O.`  . .M <XuX0X0X0X0X0X0X0X0X",
"0X0X0X0X0X0X0X0X0X0X0X0X0X0X0X0X0X<X~ 0.A.t Q :.R R R R ,.0.U ;.3.9.} p.p.7.[ q.{ | r.} N ,.3.3.2.$.w.+.O.5.M.<X0X0X0X0X0X0X0X0X",
"0X0X0X0X0X0X0X0X0X0X0X0X0X0X0XuXqXv ~ m.L.k 7 e e e e w V C.V W E t e B b.u i y.i i ! N u.a.5.0.d.s.8.3.2.{ a.v 7XuX0X0X0X0X0X0X",
"0X0X0X0X0X0X0X0X0X0X0X0X0X0X0XuX>Xu b.l L.~.L.!.[.[./.!.!. XJ.a a G.~.F.S J.J.S J.J.S V.V e w V I.n.v.( <.| T r >XuX0X0X0X0X0X0X",
"0X0X0X0X0X0X0X0X0X0X0X0X0X0XuX7Xx ~ ~ i U. X+XOX@X@XOXOXOX].].Y.Y. X X].Y. X].~.].].~.].U.L.L.~.~.z 6 / 3.q.5.^ x qXuX0X0X0X0X0X",
"0X0X0X0X0X0X0X0X0X0X0X0X0X0XuX5Xr R / _ ). XOXOXOXOXOXOXOX_._. X X_._._. X_._. X_._. X]. X X X X].E.0 _ 3.<.[ -.r >XuX0X0X0X0X0X",
"0X0X0X0X0X0X0X0X0X0X0X0X0X0XuX5XN -.~ N U. XOXOXOXOX+X+XOX].`._._.].].]._.].]._.].`._.]._._.]._. X~.e ) 3.{ s.3.E v 7XuX0X0X0X0X",
"0X0X0X0X0X0X0X0X0X0X0X0X0X0XuX7Xy -.R e U. XOXOXOXOXOXOXOX].].].].].].].].].OX].].]._._.].].]._. XL.y a.3.6.s.3.W 7 5XuX0X0X0X0X",
"0X0X0X0X0X0X0X0X0X0X0X0X0X0XuX7X0 W ! 8 L. X_.OX X].].OXOXOXOX].].].].].].].].].]._. X X_.`.]._. X[.y 9.3.6.3.,.- h 7XuX0X0X0X0X",
"0X0X0X0X0X0X0X0X0X0X0X0X0X0XuX7X9 a C.A L.@XtXaXE.].].OXOXOXOXOXOX].OXOX].].OX].`. XL./. X].]._. X[.e 9.3.<.3.-.0 ,XuX0X0X0X0X0X",
"0X0X0X0X0X0X0X0X0X0X0X0X0X0XuX5Xg F. XY._.@XJ.c c E.OXOXOXOXOXOX].].OXOX].].OX].].G.c c W.OX]._. X[.l / 8.<.3.[ y 7XuX0X0X0X0X0X",
"0X0X0X0X0X0X0X0X0X0X0X0X0X0XuX5Xk P. X].+X/.K G.G.K /.+XOXOXOXOX].].OXOX].].OX XP.D G.G.K [.OX XOXOXD.V b.8.3.5.y 5XuX0X0X0X0X0X",
"0X0X0X0X0X0X0X0X0X0X0X0X0X0XuX5Xk L. X_.OX].P. X XP.OXOXOXOXOXOX].].OX].`.].OX]._.P. X XL.'.]. XOXOXrXS.u R 3.5.y 5XuX0X0X0X0X0X",
"0X0X0X0X0X0X0X0X0X0X0X0X0X0XuX5Xk L. X`.OXOXOXOX]. XOXOXOXOXOXOXOX].OX].`.].].].]. X]._. X].].].OXOXrX~.e R 4.5.y 5XuX0X0X0X0X0X",
"0X0X0X0X0X0X0X0X0X0X0X0X0X0XuX5Xk L.OX].OXOXOXOXOXOXOXOXOXOXOXOXOX].OX].].].].`.].+X_.}.@XOXOX XOXOXrXW.w R 3.5.y 8XuX0X0X0X0X0X",
"0X0X0X0X0X0X0X0X0X0X0X0X0X0XuX5Xk L.+X].OXOXOXOXOXOXOXOXOXOXOXOXOX].OX].].].].].OXOX].OXOXOXOXOXOXOXrX!.B R 3.5.e eXuX0X0X0X0X0X",
"0X0X0X0X0X0X0X0X0X0X0X0X0X0XuX2Xk L.+X].OXOXOXOXOX].OXOXOXOXOXOX].].].].].].].].OXOXOXOXOXOXOXOXOXOXrX_.N.1.3.7.= h 7XuX0X0X0X0X",
"0X0X0X0X0X0X0X0X0X0X0X0X0X0XuX7Xk L.OX].OXOX]. X].].OXOXOX].].].].].].].].].OXOXOXOX@XOXOXOXOXOXOXOXrX~.B R 3.,.= j 7XuX9X0X0X0X",
"0X0X0X0X0X0X0X0X0X0X0X0X0X0XiX-Xk L. X].OXOX_.P.].].].OXOXOXOXOXOX].].].`.].OX].].OX/.OXOXOXOXOXOXOX XL.7 R 3.R 0 3XuX0X0X0X0X0X",
"0X0X0X0X0X0X0X0X0X0X0X0X0X0X1Xv 6 Y. XOXOXOXQ.D F. X].].].OXOXOXOX].].].].].OX]. XG.K /.+XOXOXOXOXOX XU.e R 3.-.0 ,XuX0X0X0X0X0X",
"0X0X0X0X0X0X0X0X0X0X0X0XuX7XI B.S L. X].].].].G.D G.].].].].].OXOX].`.].OX].OX XA.D G.+XOXOXOXOXOXOX X!.e R 3.^ & G 7XuX0X0X0X0X",
"0X0X0X0X0X0X0X0X0X0X0X0X0X6XW.`.J._.].].OXOX]. XG.F /.+XOXOXOXOXOX].].OXOXOX+XP.F G.OXOXOXOXOXOXOXOX X!.e :.<.- h 1XuX0X0X0X0X0X",
"0X0X0X0X0X0X0X0X0X0X0XuX2Xy ~.~.A L. XOXOXOX].`. X[.OXOXOXOXOXOX].].OXOXOXOX]._.P.].OXOXOXOXOX].OXOX X!.e :.-.9 %XqX0X0X0X0X0X0X",
"0X0X0X0X0X0X0X0X0X0X0XuX2X= P.~.p L. X].OXOXOX]. XOXOXOXOXOXOXOX].].OXOX].].].]. X].].].OXOXOX].OXOX XU.e E n 8 g x 7XuX0X0X0X0X",
"0X0X0X0X0X0X0X0X0X0X0XuX5Xk Y.~.k L. X_.OXOXOXOXOXOXOXOXOXOXOXOX].OXOXOXOXOX].].OXOXOXOXOXOX].].OXOX XL.8 ! m J.A.g 5XuX0X0X0X0X",
"0X0X0X0X0X0X0X0X0X0X0XuX5Xk Y.Y.a L.OX].OXOXOXOXOXOXOXOXOXOXOXOXOXOXOX].].].].].].].OXOXOXOXOXOXOXOX X~.0 : G.OXY.l 5XuX0X0X0X0X",
"0X0X0X0X0X0X0X0X0X0X0XuX2Xg ~.~.a L. X].OXOXOXOXOXOXOXOXOXOXOX].OXOXOXOXOXOX].].OXOXOXOX].OXOXOXOXOX_. XF.e L. XL.k 5XuX0X0X0X0X",
"0X0X0X0X0X0X0X0X0X0X0XuX5XG G.G.p L. X_.OXOXOXOXOXOXOXOXOXOXOX].OXOXOXOXOXOXOXOXOX].].].].OXOXOXOXOX].].].~._. XL.k 5XuX0X0X0X0X",
"0X0X0X0X0X0X0X0X0X0X0X0XuX1XJ 0 0 P. X_.OXOXOXOXOXOXOXOXOXOXOX].].OXOXOXOXOXOXOXOXOXOXOXOXOXOXOXOXOXOX]._. X_. XP.k 5XuX0X0X0X0X",
"0X0X0X0X0X0X0X0X0X0X0X0X0XuX7X-Xk L. X_.OXOXOXOXOXOXOXOXOXOXOXOX].].OXOXOXOXOX].].].OXOXOXOXOXOX].OXOXOX]._._. XG.k 5XuX0X0X0X0X",
"0X0X0X0X0X0X0X0X0X0X0X0X0X0XiX7Xk L. X].OX].OXOXOXOXOXOXOXOXOXOXOX].].OXOXOXOX].`.].OXOXOXOXOX].].OXOXOX]._. XY.< 5 7XuX0X0X0X0X",
"0X0X0X0X0X0X0X0X0X0X0X0X0X0XuX2Xk L. X].OX].OXOXOXOXOXOXOXOXOXOXOXOX].].OXOXOX].].].OXOXOXOXOX`.].OXOXOX]._. X~.% h 7XuX0X0X0X0X",
"0X0X0X0X0X0X0X0X0X0X0X0X0X0XuX5Xk L. X_.].].].].].].].].OXOXOXOXOXOXOXOXOX+XOX].`.].OX XOXOXOX].].OXOXOX_.OX XG.J ,XuX0X0X0X0X0X",
"0X0X0X0X0X0X0X0X0X0X0X0X0X0XuX5Xk L. X_._._._._._._._._._.].OXOXOXOXOX+X+XOX+XOX_._.OX X XOXOXOX].OX].OX X XG.c >XuX0X0X0X0X0X0X",
"0X0X0X0X0X0X0X0X0X0X0X0X0X0XuX5Xk L. X X X X X X X X X X X X XOX@X@X@X+X@X@X+X@X+X+X+X X].}.OX+X+X+X].L.P.G.0 j 8XuX0X0X0X0X0X0X",
"0X0X0X0X0X0X0X0X0X0X0X0X0X0XuX5Xk L.].L.Y.U.U.U.U.U.U.L.L.L.W./.[.[.[././././././.[./.!.U.L.Q.}.+XrXJ.A k g h 1XuX0X0X0X0X0X0X0X",
"0X0X0X0X0X0X0X0XuX0XuX0X0X0XuX5Xk P.).V 6 t t t t t t ; ; ; t u t t t t t t t t t t t t i ; > /.tX{.A wX7X2X7XuX0X0X0X0X0X0X0X0X",
"0X0X0X0X0X0XuXuX5X0X5XuX0X0XuX5Xk L. XF.u h.x.j.j.j.j.j.j.j.j.j.j.j.j.j.j.j.j.j.j.j.j.j.z.h.3 [.OXL.k 7XiXuXuX0X0X0X0X0X0X0X0X0X",
"0X0X0X0X0X0XuX>XP =XP ;XuX0XuX5Xk P. X XJ.C k.c.c.c.c.c.c.c.c.c.c.c.c.c.c.c.c.c.c.c.c.c.c.4 p ~. XP.k 2XuX9X0X0X0X0X0X0X0X0X0X0X",
"0X0X0X0X0XuX5XL B.A B.L 5XuXuX5Xg G. X_. XG.C g.c.c.c.c.c.c.c.c.c.c.c.c.c.c.c.c.c.c.c.c.g.7 G.]. XF.J 5XuX0X0X0X0X0X0X0X0X0X0X0X",
"0X0X0X0X0XuX2Xl Z.S Z.l 2XuXuX7Xh 0 J. X_. XJ.C g.c.c.c.c.c.c.c.c.c.c.c.c.c.c.c.c.c.x.l.N p ~. XG.K >XuX0X0X0X0X0X0X0X0X0X0X0X0X",
"0X0X0X0X0XuX5Xl P.].L.x 2XuX9XuX1Xd , G. X_. XE.C g.z.j.j.j.j.z.z.z.z.z.j.j.j.j.j.g.; B G.~.].G.c -XuX0X0X0X0X0X0X0X0X0X0X0X0X0X",
"0X0X0X0X0XuX5Xk C._.L.g 7XiX9X0XuX1Xd p J. X].OXE.V t u t t < t e e e e t t t t u t p G. X X).y 9 qXuX0X0X0X0X0X0X0X0X0X0X0X0X0X",
"0X0X0X0X0XuX5Xx 0 a J.a :X7XuXuXuXuX9X&Xp Z.~.~.OX!.~.~.U.U.L.U.U.U.U.U.U.U.U.L.L.L.Y. X].P.Z.= 9 5XuX0X0X0X0X0X0X0X0X0X0X0X0X0X",
"0X0X0X0X0X0X9XqX-Xv A.L.e v >X7X2X7X1Xf & , > a ~. X X X X X X X].].]. X X]. X X X X X~.G.s > 8 9 5XuX0X0X0X0X0X0X0X0X0X0X0X0X0X",
"0X0X0X0X0X0X0XuXiX>Xz G.).J.c k l k c Z.).Z.= 2 J.Y.L.Y.]. X X X X X X]. X X].Y.L.~.J.a V K.|.H.6 2XuX0X0X0X0X0X0X0X0X0X0X0X0X0X",
"0X0X0X0X0X0X0X0X0XuX-XL G.Y.Y.Y.Y.Y.Y. X X~.> $ > - O y G.P.L.L.(.(.!.P.L.L.G.p 6 8 6 6 K.oX$XR.8 2XuX0X0X0X0X0X0X0X0X0X0X0X0X0X",
"0X0X0X0X0X0X0X0X0X0XuX>Xv B J.~.Y.Y.P.L. X~.& X # o     a a a a l k l F B , # + # . . : |..X.XT.7 2XuX0X0X0X0X0X0X0X0X0X0X0X0X0X",
"0X0X0X0X0X0X0X0X0X0X0XuX7X;XJ z l k 0 z J.J.6 #   X   O V.^.T.T.T.T.^.|.|.V.f 2 # @ $ 7 R..X.XT.> 2XiX0X0X0X0X0X0X0X0X0X0X0X0X0X",
"0X0X0X0X0X0X0X0X0X0X0X0XuXuX5X5X5X4X7X-X9 6 % X         , T.$XoX$XoXXXXXU.> o       # = |.$XoXT., 4XpXuX0X0X0X0X0X0X0X0X0X0X0X0X",
"0X0X0X0X0X0X0X0X0X0X0X0X0X0XuXuXuXuXiX7X9 6 % X           e K.^.^.K.s O O           # = K.#X.XT.> 2XiX0X0X0X0X0X0X0X0X0X0X0X0X0X",
"0X0X0X0X0X0X0X0X0X0X0X0X0X0X0X0X0X9XuX5X9 X %               @ # # @ .     $ o   X   $ o O < XXR.8 2XuX0X0X0X0X0X0X0X0X0X0X0X0X0X",
"0X0X0X0X0X0X0X0X0X0X0X0X0X0X0X0X0X0XuX7X9   % #         . . .       .   o + 1 o     #     : |.^.k 4XuX0X0X0X0X0X0X0X0X0X0X0X0X0X",
"0X0X0X0X0X0X0X0X0X0X0X0X0X0X0X0X0X0XuX7Xg X $ #         # $ %         $ $ . . # X       . = |.^.k 4XuX0X0X0X0X0X0X0X0X0X0X0X0X0X",
"0X0X0X0X0X0X0X0X0X0X0X0X0X0X0X0X0X0XuX5X6 #                 % % % % % %       .           - |.^.l 4XuX0X0X0X0X0X0X0X0X0X0X0X0X0X"
};
